<?xml version="1.0" encoding="UTF-8" standalone="no"?>
<!-- Generator: Adobe Illustrator 13.0.2, SVG Export Plug-In . SVG Version: 6.00 Build 14948)  -->

<svg
   xmlns:dc="http://purl.org/dc/elements/1.1/"
   xmlns:cc="http://creativecommons.org/ns#"
   xmlns:rdf="http://www.w3.org/1999/02/22-rdf-syntax-ns#"
   xmlns:svg="http://www.w3.org/2000/svg"
   xmlns="http://www.w3.org/2000/svg"
   xmlns:sodipodi="http://sodipodi.sourceforge.net/DTD/sodipodi-0.dtd"
   xmlns:inkscape="http://www.inkscape.org/namespaces/inkscape"
   version="1.1"
   id="Layer_1"
   onload="init(evt)"
   x="0px"
   y="0px"
   width="40%"
   height="100%"
   viewbox="0 0 612 792"
   enable-background="new 0 0 612 792"
   xml:space="preserve"
   inkscape:version="0.48.2 r9819"
   sodipodi:docname="musclediagram.svg"><metadata
   id="metadata95"><rdf:RDF><cc:Work
       rdf:about=""><dc:format>image/svg+xml</dc:format><dc:type
         rdf:resource="http://purl.org/dc/dcmitype/StillImage" /><dc:title></dc:title></cc:Work></rdf:RDF></metadata><defs
   id="defs93">
                
                
                
                
                
                
                
                
                
                
                
                
                
                
                
                
                
            
                    
                
                        
                    
                    
                
                        
                    
                    
                
                        
                    
                    
                
                        
                    
                    
                
                        
                    
                    
                
                        
                    
                    
                
                        
                    
                    
                
                        
                    </defs><sodipodi:namedview
   pagecolor="#ffffff"
   bordercolor="#666666"
   borderopacity="1"
   objecttolerance="10"
   gridtolerance="10"
   guidetolerance="10"
   inkscape:pageopacity="0"
   inkscape:pageshadow="2"
   inkscape:window-width="1280"
   inkscape:window-height="778"
   id="namedview91"
   showgrid="false"
   inkscape:zoom="1.7940591"
   inkscape:cx="275.79548"
   inkscape:cy="457.56597"
   inkscape:window-x="-8"
   inkscape:window-y="-8"
   inkscape:window-maximized="1"
   inkscape:current-layer="Layer_1" />
            <path
   id="path3201"
   style="fill:#bccbde"
   d="m 278.28,209.88 v -0.233 c -1.242,-33.543 -10.171,-50.937 -26.788,-52.179 h -0.233 c -11.492,-1.553 -19.567,0.311 -24.226,5.59 15.53,14.132 25.934,28.962 31.214,44.492 3.261,4.659 6.134,11.647 8.619,20.964 3.727,0.156 7.531,-6.055 11.414,-18.634 m 126.021,-39.6 c -7.765,-13.666 -18.479,-20.033 -32.146,-19.101 -4.659,-0.466 -8.153,1.553 -10.482,6.057 -18.324,1.087 -27.409,21.431 -27.254,61.03 v 0.233 c 5.901,-8.542 14.209,-14.908 24.925,-19.102 5.124,-1.863 10.793,-2.795 17.005,-2.795 h 0.698 l -0.466,0.233 -0.232,-0.233 c -4.349,3.416 -5.979,8.696 -4.893,15.84 3.883,8.23 5.746,16.461 5.591,24.692 15.219,4.038 27.332,2.717 36.339,-3.96 l -0.232,-0.232 0.698,-16.539 v -1.165 c -0.311,-13.045 -2.795,-26.089 -7.454,-39.134 l -2.097,-5.824" /><path
   id="Shoulder"
   style="fill:#bccbde"
   d="m 76.786,207.551 c 5.28,-15.53 15.763,-30.36 31.447,-44.492 -4.814,-5.28 -12.967,-7.144 -24.459,-5.59 -16.771,1.087 -25.779,18.48 -27.021,52.179 3.727,12.734 7.609,19.023 11.647,18.868 2.329,-9.318 5.125,-16.307 8.386,-20.965 m 455.4,-8.386 c 9.474,3.261 17.549,9.396 24.227,18.402 -0.155,-38.979 -9.24,-59.089 -27.255,-60.332 -2.484,-4.503 -5.979,-6.522 -10.481,-6.057 l -0.233,-0.233 c -13.821,-0.776 -24.614,5.668 -32.379,19.334 l -1.863,5.358 h -0.233 c -4.813,13.355 -7.376,26.788 -7.687,40.299 -0.155,5.59 0.155,11.259 0.932,17.005 9.007,6.988 21.275,8.386 36.805,4.193 -0.311,-8.231 1.553,-16.461 5.591,-24.692 0.932,-7.299 -0.777,-12.579 -5.125,-15.84 l 17.005,2.329 0.696,0.234" /><path
   style="fill:#bccbde"
   d="m 556.412,255.77 c 1.863,-11.803 1.863,-24.304 0,-37.504 v -0.699 c -6.678,-9.007 -14.753,-15.141 -24.227,-18.402 l -0.466,0.233 -0.232,-0.466 -17.005,-2.329 c 4.348,3.261 6.057,8.541 5.125,15.84 -4.038,8.23 -5.901,16.461 -5.591,24.692 l 1.397,9.783 c 2.174,14.753 5.746,28.497 10.715,41.231 l -0.932,4.193 12.113,20.499 h 6.755 l 5.591,-13.743 9.784,-24.459 c -0.464,-9.785 -1.474,-16.075 -3.027,-18.869"
   id="path3222" /><path
   style="fill:#bccbde"
   d="m 377.047,237.134 c 0.155,-8.231 -1.708,-16.461 -5.591,-24.692 -1.087,-7.144 0.544,-12.424 4.893,-15.84 -6.212,0 -11.881,0.932 -17.005,2.795 -10.716,4.193 -19.023,10.56 -24.925,19.102 -2.019,13.044 -2.019,25.468 0,37.271 -1.708,2.795 -2.718,9.007 -3.028,18.635 v 0.233 l -0.233,0.233 15.375,37.969 h 6.755 v -0.233 h 0.232 l 12.113,-20.266 -1.165,-4.193 c 4.97,-12.734 8.542,-26.478 10.716,-41.231 l 1.863,-9.783"
   id="Tricep" /><g
   id="g15"
   transform="translate(423,975)">
                    <g
   id="g17">
                        <path
   style="fill:#bccbde"
   inkscape:connector-curvature="0"
   d="m 86.357,-658.2 -1.863,-8.852 -1.863,0.699 -0.932,0.466 -1.631,0.699 h -0.233 c -4.348,2.174 -9.084,5.59 -14.209,10.249 l -2.796,2.33 -2.562,2.795 -1.864,1.863 -0.698,0.466 -4.426,4.426 5.357,7.221 c 12.269,0.776 21.741,3.572 28.419,8.386 0,-3.106 -0.621,-5.047 -1.863,-5.824 2.329,-5.279 2.717,-13.587 1.164,-24.924 m -101.329,8.619 h 0.232 c -9.628,-9.318 -17.78,-15.141 -24.458,-17.471 l -2.097,8.852 c -1.553,11.337 -1.087,19.645 1.397,24.925 -1.397,0.776 -2.097,2.64 -2.097,5.591 6.678,-4.659 16.15,-7.376 28.419,-8.153 l 5.357,-7.221 -6.057,-6.057 -0.696,-0.466 m -204.289,-63.826 h 0.233 l -0.233,0.932 c 2.64,6.677 2.252,16.228 -1.165,28.652 l -0.932,3.494 v 0.233 c 2.019,9.628 1.32,18.869 -2.097,27.72 v 0.233 h -0.233 c -0.466,12.579 -1.631,24.148 -3.494,34.708 l -0.233,0.466 c 2.329,6.056 3.494,10.327 3.494,12.812 1.397,-4.193 8.386,-12.501 20.965,-24.925 3.571,-3.572 7.454,-6.833 11.647,-9.783 v -0.233 c 0.776,-4.814 0.699,-11.026 -0.233,-18.635 l -2.097,-9.085 c 0.466,-5.901 1.397,-11.569 2.795,-17.004 l 1.397,-4.193 v -0.233 c -0.621,-25.002 -5.125,-44.88 -13.51,-59.633 l -16.539,12.346 c 2.797,4.968 2.875,12.345 0.235,22.128 m -71.28,29.584 c -3.417,-12.424 -3.805,-21.975 -1.165,-28.652 l 0.466,-0.932 c -2.795,-9.783 -2.795,-17.16 0,-22.129 l -16.771,-12.346 c -8.386,14.753 -12.812,34.708 -13.278,59.866 l 1.165,4.193 3.028,17.004 -2.096,9.085 c -1.087,7.609 -1.243,13.898 -0.466,18.868 l 11.414,9.783 c 12.579,12.424 19.567,20.732 20.965,24.925 0,-2.485 1.242,-6.911 3.727,-13.277 l -0.233,-0.233 c -1.863,-10.715 -3.028,-22.208 -3.494,-34.476 -3.572,-9.007 -4.271,-18.325 -2.097,-27.953 l -1.165,-3.726"
   id="Oblique" />
                    </g>
                </g><g
   id="g20"
   transform="translate(410,921)">
                    <g
   id="g22">
                        <path
   style="fill:#bccbde"
   inkscape:connector-curvature="0"
   d="m -206.494,-681.537 33.078,-24.924 -31.68,14.675 c -10.249,4.97 -19.567,4.97 -27.953,0 l -9.318,6.988 -9.317,-6.988 c -8.386,4.97 -17.704,4.97 -27.953,0 l -31.68,-14.675 33.078,24.924 c -2.795,4.97 -2.795,12.346 0,22.129 l -0.466,0.932 c -2.64,6.677 -2.251,16.228 1.165,28.651 l 1.165,3.727 12.346,-3.727 21.664,-2.562 21.664,2.562 12.346,3.727 v -0.233 l 0.932,-3.494 c 3.417,-12.423 3.805,-21.974 1.165,-28.651 l -0.233,-0.932 h 0.233 c 2.637,-9.782 2.559,-17.159 -0.236,-22.129"
   id="Upper_Abs" />
                    </g>
                </g><g
   id="g25"
   transform="translate(554,1239)">
                    <g
   id="g27">
                        <path
   style="fill:#bccbde"
   inkscape:connector-curvature="0"
   d="m -358.181,-881.435 c 1.863,-10.56 3.028,-22.129 3.494,-34.708 h 0.233 v -0.233 c 3.417,-8.852 4.115,-18.092 2.097,-27.72 l -12.346,-3.727 -21.664,-2.562 -21.664,2.562 -12.346,3.727 c -2.174,9.628 -1.475,18.946 2.096,27.953 0.466,12.268 1.631,23.76 3.494,34.476 l 0.233,0.233 c 2.329,13.666 5.901,26.089 10.715,37.271 l 12.113,6.988 h 10.715 l 11.181,-7.92 1.165,-1.165 c 4.503,-10.25 7.92,-21.819 10.25,-34.708 l 0.234,-0.467"
   id="Lower_Abs" />
                    </g>
                </g><g
   id="g30"
   transform="translate(401,1443)">
                    <g
   id="g32">
                        <path
   style="fill:#bccbde"
   inkscape:connector-curvature="0"
   d="m 80.404,-1103.838 c -8.386,6.988 -13.354,14.054 -14.908,21.198 -14.598,21.431 -20.421,43.25 -17.471,65.457 l 11.415,3.96 21.43,0.699 2.796,0.232 5.591,0.699 7.454,1.631 h 0.232 l 7.454,2.329 7.688,3.727 c -10.405,-31.059 -9.706,-48.84 2.097,-53.343 l 6.988,9.551 -0.467,-7.221 c -0.155,-4.814 -1.553,-9.163 -4.192,-13.045 -1.708,-12.268 -4.271,-21.431 -7.688,-27.487 -6.677,-4.815 -16.15,-7.61 -28.419,-8.387 m -39.833,86.654 c 2.951,-22.207 -2.795,-44.026 -17.237,-65.457 -1.708,-7.144 -6.755,-14.209 -15.141,-21.198 -12.269,0.777 -21.741,3.494 -28.419,8.153 v 0.233 c -3.417,6.056 -5.901,15.219 -7.454,27.487 -2.796,3.882 -4.271,8.231 -4.426,13.045 -0.311,2.329 -0.389,4.736 -0.233,7.221 l 6.755,-9.551 c 11.958,4.503 12.734,22.285 2.33,53.343 3.105,-1.863 8.23,-3.96 15.374,-6.289 l 13.045,-1.397 10.948,0.232 13.51,-1.863 10.948,-3.959 m -211.51,-83.626 1.631,-5.823 v -0.233 l -11.647,9.783 6.289,5.824 12.346,16.539 c -1.708,-8.696 -3.882,-15.529 -6.522,-20.499 0,-2.95 -0.699,-4.814 -2.097,-5.591 m -126.72,-6.056 1.863,6.056 c -1.397,0.777 -2.096,2.64 -2.096,5.591 -2.795,4.969 -4.97,11.802 -6.522,20.499 4.503,-7.143 8.541,-12.656 12.113,-16.539 l 6.057,-5.824 -11.415,-9.783"
   id="Glutes" />
                    </g>
                </g><path
   style="fill:#bccbde"
   d="m 557.344,370.609 1.397,15.84 -5.357,-42.395 3.96,26.555"
   id="path3233" /><path
   id="path3229"
   style="fill:#bccbde"
   d="m 291.092,331.475 c 2.174,-4.814 2.174,-11.569 0,-20.266 0.466,-7.144 -0.155,-13.821 -1.864,-20.033 -1.553,-5.746 -4.038,-11.026 -7.454,-15.84 l -15.141,46.355 c -0.932,-7.765 -4.348,-17.937 -10.25,-30.516 -4.193,-8.852 -9.628,-18.946 -16.306,-30.282 2.019,9.628 4.736,18.868 8.153,27.72 l -0.466,2.562 c -1.087,6.057 -0.932,10.327 0.466,12.812 -0.466,20.033 2.951,37.969 10.25,53.81 l 0.233,0.233 c 6.057,10.404 11.026,21.275 14.908,32.612 l 8.153,-6.057 -11.414,25.391 24.226,-15.141 v -0.233 c 1.087,-5.901 1.087,-11.725 0,-17.471 0,-13.045 -0.854,-26.012 -2.563,-38.901 l -0.931,-6.755 m 73.376,-27.72 c 1.554,-2.951 1.941,-6.755 1.165,-11.414 l -12.113,20.266 -0.232,0.233 -3.262,19.334 -5.124,-0.233 -1.165,-0.932 c -3.261,-2.951 -5.513,-7.92 -6.755,-14.908 -2.33,-7.765 -0.932,-13.355 4.192,-16.771 l -10.017,-24.459 c -7.144,10.25 -10.249,22.207 -9.317,35.873 -2.174,8.696 -2.174,15.452 0,20.266 -2.329,15.219 -3.494,30.438 -3.494,45.657 -1.087,5.901 -1.087,11.802 0,17.704 l 0.699,6.29 6.289,-26.556 8.386,19.8 5.824,-3.494 c 3.571,-11.181 8.463,-22.129 14.675,-32.845 7.299,-15.841 10.716,-33.778 10.249,-53.811" /><path
   id="Forearm"
   style="fill:#bccbde"
   d="m 86.802,303.988 c 1.553,-2.795 1.941,-6.522 1.165,-11.181 l -0.233,-1.165 -0.233,-0.466 -0.233,-1.165 -0.466,-1.397 8.153,-27.72 c -6.677,11.336 -12.035,21.431 -16.073,30.282 -6.057,12.579 -9.473,22.751 -10.25,30.516 L 53.491,275.337 c -3.572,4.814 -6.134,10.094 -7.687,15.84 -1.553,5.436 -2.174,11.259 -1.864,17.471 v 2.563 c -2.174,8.696 -2.174,15.452 0,20.266 l -0.932,6.755 c -1.708,12.89 -2.484,25.856 -2.329,38.901 -1.087,5.746 -1.087,11.569 0,17.471 l 24.226,15.374 -11.647,-25.391 8.386,6.29 c 3.572,-11.181 8.542,-22.129 14.908,-32.845 v -0.233 c 7.3,-15.841 10.716,-33.778 10.25,-53.811 m 482.188,27.021 c 2.175,-4.814 2.175,-11.569 0,-20.266 0.932,-13.821 -2.252,-25.856 -9.55,-36.106 l -9.784,24.459 0.233,0.233 h 0.232 c 2.796,2.019 4.426,4.736 4.892,8.153 v 1.397 l -0.466,5.125 v 0.233 l -0.232,0.466 v 0.233 l -0.233,0.466 v 0.233 l -0.232,0.466 c -1.242,6.988 -3.417,11.958 -6.522,14.908 l -1.165,0.932 -5.124,0.233 -3.262,-19.334 h -0.466 l -12.113,-20.499 c -0.932,4.659 -0.621,8.463 0.932,11.414 -0.466,20.033 2.951,37.969 10.25,53.809 6.057,10.405 10.87,21.042 14.442,31.913 l 6.522,4.426 1.164,-3.028 0.233,-2.563 v 2.563 l 6.988,-16.772 6.057,25.623 0.698,-5.357 c 0.932,-5.901 0.932,-11.803 0,-17.704 0,-15.218 -1.164,-30.437 -3.494,-45.656" /><path
   style="fill:#bccbde"
   d="m 151.56,463.32 -0.233,0.232 0.233,-0.466 v 0.234"
   id="Quads" /><path
   id="path3264"
   style="fill:#bccbde"
   d="m 204.437,611.005 -1.397,-4.426 -3.494,-6.988 -4.193,-6.057 1.863,11.414 -0.699,9.551 c -1.087,5.746 -1.941,11.569 -2.563,17.471 -0.466,4.813 -0.466,9.706 0,14.675 0.311,4.193 1.087,8.309 2.33,12.346 l 1.165,5.824 1.165,11.181 0.233,11.182 0.699,11.181 0.466,10.716 1.864,-3.96 1.63,-4.426 2.33,-12.347 1.397,-15.606 v -20.033 l -2.097,-37.271 -0.699,-4.427 m 20.267,-24.693 -6.29,13.045 c -1.397,3.883 -2.407,7.92 -3.028,12.113 l -1.165,13.277 -0.233,14.21 -0.699,16.538 -0.466,9.318 v 9.317 l 0.466,9.317 1.165,9.317 1.863,9.318 2.33,9.317 2.795,8.852 19.101,-61.496 -7.92,-79.2 -7.919,6.757 m 190.079,17.937 -6.289,-40.997 c -2.64,2.95 -5.047,6.057 -7.222,9.317 -1.708,2.329 -3.027,4.814 -3.96,7.454 l -3.261,10.017 -2.097,-14.908 -2.097,-7.222 -3.028,-7.92 -6.521,11.182 v 8.153 l -3.494,8.852 -2.796,9.084 c -1.397,6.212 -2.407,12.502 -3.028,18.869 -0.621,6.832 -0.854,13.665 -0.698,20.498 l 0.466,10.716 1.631,10.948 16.072,72.678 0.699,9.55 3.494,17.471 h 6.988 l -0.932,-10.715 -1.165,-10.948 -3.728,-21.664 -5.124,-21.197 -3.028,-10.249 -3.728,-10.716 6.756,-12.112 2.563,-6.522 2.096,-7.454 6.522,14.209 3.494,6.057 3.728,5.125 -1.165,27.952 -0.466,8.387 -0.465,16.303 0.932,16.771 0.932,8.386 1.165,7.92 3.494,-31.446 1.631,-17.704 0.932,-17.237 0.232,-8.852 0.466,-8.853 0.932,-8.618 2.796,-11.88 1.165,-6.29 -0.233,-14.908 -2.795,-17.471 -1.866,-10.016" /><path
   id="Calves"
   style="fill:#bccbde"
   d="m 137.816,604.948 c 0.155,-3.883 0.776,-7.688 1.864,-11.414 -4.504,5.125 -7.454,10.948 -8.852,17.471 l -1.863,14.442 c -0.932,12.579 -1.32,25.235 -1.165,37.969 l 0.466,17.937 0.932,7.454 2.795,11.881 3.261,8.618 1.864,-47.753 2.33,-5.357 2.096,-11.88 -0.233,-14.21 -2.563,-16.072 -0.932,-9.086 m -35.407,-25.39 -3.494,8.852 -3.028,9.085 -1.864,9.317 -1.397,9.551 -0.699,10.249 0.233,10.482 0.932,10.716 1.63,10.715 4.892,19.334 13.976,42.396 3.028,-8.852 2.563,-9.317 1.63,-9.318 1.165,-9.317 0.233,-9.317 v -9.317 l -0.699,-9.318 -0.699,-9.317 0.233,-7.221 0.233,-7.222 v -6.755 l -0.466,-7.222 -0.699,-6.289 -0.932,-6.289 -1.63,-6.057 -2.563,-5.591 -4.659,-7.222 -7.919,-6.756 M 510.522,571.172 504,559.99 l -2.795,7.688 c -1.554,4.97 -2.718,10.017 -3.494,15.141 l -0.932,7.222 -1.398,-5.125 -3.028,-8.618 -3.494,-6.988 c -1.708,-2.796 -3.882,-4.814 -6.521,-6.057 l -6.522,40.997 -3.262,19.335 -1.397,15.84 c -0.155,6.678 0.621,13.277 2.329,19.8 l 2.33,14.442 1.164,17.471 0.233,8.386 0.698,8.852 0.467,8.852 1.63,17.238 2.563,23.061 1.165,-8.152 1.863,-16.539 0.466,-16.306 c 0.155,-8.386 -0.233,-16.772 -1.165,-25.158 l -1.164,-19.566 3.727,-5.591 6.756,-12.346 3.261,-7.454 2.329,7.221 5.591,13.045 3.494,5.823 -3.494,10.716 -5.823,21.197 -4.426,21.197 c -1.863,10.716 -3.184,21.509 -3.96,32.379 h 6.755 l 3.494,-17.703 0.932,-9.317 16.073,-72.678 -7.92,-78.967 v -8.156" /><path
   id="Chest"
   style="fill:#bccbde"
   d="m 158.315,170.746 c -14.442,-9.007 -31.137,-11.569 -50.083,-7.688 -15.685,14.132 -26.167,28.962 -31.447,44.492 7.299,-2.64 14.598,-0.311 21.896,6.988 l 31.68,14.675 c 10.25,4.97 19.567,4.97 27.953,0 6.679,-21.274 6.679,-40.764 0.001,-58.467 m 18.636,0 c -6.833,17.703 -6.833,37.193 0,58.468 8.386,4.97 17.704,4.97 27.953,0 l 31.68,-14.675 c 7.144,-7.299 14.365,-9.628 21.664,-6.988 -5.28,-15.53 -15.685,-30.36 -31.214,-44.492 -18.947,-3.882 -35.641,-1.32 -50.083,7.687" /><g
   id="g55"
   transform="translate(1738,1233)">
                    <g
   id="g57">
                        <path
   style="fill:#bccbde"
   inkscape:connector-curvature="0"
   d="m -1254.965,-908.047 -5.357,-9.318 -5.357,-8.153 c -6.522,-10.715 -12.657,-17.238 -18.402,-19.567 l -2.097,-0.699 v 0.233 h -13.511 l -1.165,0.233 -7.92,5.125 c -4.503,4.193 -9.162,10.793 -13.977,19.8 l -1.863,3.261 -5.357,9.551 0.466,0.466 6.057,6.057 13.277,12.812 17.005,15.374 31.214,-28.186 4.426,-4.426 0.699,-0.466 1.862,-2.097"
   id="Lower_Back" />
                    </g>
                </g><g
   id="g60"
   transform="translate(391,350)">
                    <g
   id="g62">
                        <path
   style="fill:#bccbde"
   inkscape:connector-curvature="0"
   d="m 82.718,-236.558 -8.619,-31.913 -20.499,3.96 -19.334,-3.96 -7.92,31.913 -45.19,37.736 c 13.666,-0.932 24.381,5.436 32.146,19.102 l 2.097,5.823 c 4.659,13.045 7.144,26.089 7.454,39.134 l 0.466,0.699 -0.466,0.466 -0.698,16.539 h 0.466 l -0.233,0.233 24.459,51.247 0.466,3.028 h 13.511 v -0.233 c 6.367,-18.946 14.83,-37.038 25.391,-54.275 -0.776,-5.746 -1.087,-11.415 -0.932,-17.005 0.311,-13.511 2.873,-26.943 7.687,-40.299 h 0.23 l 1.863,-5.357 c 7.765,-13.666 18.558,-20.111 32.379,-19.334 l -44.724,-37.504 m -39.833,16.306 11.647,-27.953 11.646,27.953 -11.414,13.744 c -5.124,-4.814 -9.084,-9.395 -11.879,-13.744 m -339.629,21.897 36.106,1.165 c 7.144,-9.007 10.25,-21.974 9.318,-38.901 l -45.424,37.736 m 111.347,1.165 35.174,-1.165 -44.492,-37.503 c -0.932,16.771 2.174,29.66 9.318,38.668"
   id="Trapezious" />
                    </g>
                </g><g
   id="g65"
   transform="translate(399,921)">
                    <g
   id="g67">
                        <path
   style="fill:#bccbde"
   inkscape:connector-curvature="0"
   d="m 112.221,-634.482 4.193,-39.6 -1.397,-9.783 c -15.529,4.193 -27.798,2.795 -36.805,-4.193 -10.561,17.237 -19.023,35.329 -25.391,54.275 h 0.232 l 1.864,0.699 c 5.745,2.33 11.88,8.852 18.402,19.567 l 5.357,8.153 5.357,9.318 2.563,-2.563 2.795,-2.33 c 5.125,-4.659 9.861,-8.075 14.21,-10.25 h 0.232 l 1.631,-0.699 0.932,-0.466 1.863,-0.699 c 0.468,-7.608 1.788,-14.752 3.962,-21.429 m -73.376,-2.097 -24.459,-51.247 -5.357,3.261 c -8.386,3.727 -18.713,3.96 -30.981,0.699 l -1.863,9.783 4.193,39.6 c 2.174,6.678 3.571,13.821 4.192,21.431 6.678,2.33 14.831,8.153 24.459,17.471 l 5.357,-9.551 1.863,-3.261 c 4.814,-9.007 9.474,-15.607 13.977,-19.8 2.796,-2.64 5.436,-4.348 7.92,-5.125 l 1.165,-0.233 -0.466,-3.028 m -204.29,2.329 3.96,-39.6 c 2.174,-10.249 1.864,-21.12 -0.932,-32.611 l -16.539,12.579 c 8.387,14.753 12.89,34.63 13.511,59.632 m -136.037,-39.6 4.193,39.833 c 0.466,-25.158 4.892,-45.113 13.278,-59.866 l -16.306,-12.579 c -2.951,11.493 -3.339,22.363 -1.165,32.612"
   id="Back" />
                    </g>
                </g><g
   id="g70"
   transform="translate(586,427)">
                    <g
   id="g72">
                        <path
   style="fill:#bccbde"
   inkscape:connector-curvature="0"
   d="m -390.181,-313.092 v -0.233 c -0.621,-5.125 -0.776,-9.861 -0.466,-14.209 l -8.153,8.386 -6.522,4.659 0.699,0.932 c 0,8.541 -1.009,17.005 -3.028,25.391 l -8.386,25.391 c 4.659,-8.23 10.948,-10.715 18.868,-7.454 3.417,-8.542 3.417,-17.083 0,-25.624 l 7.454,-17.005 -0.466,-0.234 m -56.139,0 7.221,17.238 c -3.417,8.541 -3.417,17.082 0,25.624 8.075,-3.261 14.442,-0.776 19.101,7.454 -7.609,-16.927 -11.414,-33.854 -11.414,-50.781 -4.814,-2.64 -9.628,-6.678 -14.442,-12.113 l -0.466,12.578"
   id="Neck" />
                    </g>
                </g><path
   style="fill:#bccbde"
   d="m 278.28,217.334 -0.233,-7.92 c -3.882,12.579 -7.687,18.791 -11.414,18.635 -2.484,-9.317 -5.357,-16.306 -8.619,-20.964 -7.299,-2.64 -14.52,-0.311 -21.664,6.988 2.795,11.492 3.106,22.363 0.932,32.612 l 2.563,13.744 16.305,30.281 c 5.901,12.579 9.318,22.75 10.25,30.516 l 15.141,-46.355 -0.233,-0.233 -3.727,-19.101 1.398,-13.511 c 0.311,-7.609 -0.155,-15.529 -1.398,-23.76 l 0.699,-0.932"
   id="path3215" /><path
   style="fill:#bccbde"
   d="m 56.287,218.266 c -2.019,13.045 -2.019,25.468 0,37.271 -1.553,2.951 -2.563,9.24 -3.028,18.868 v 0.233 0.233 L 68.4,321.226 c 0.776,-7.765 4.193,-17.937 10.25,-30.516 4.038,-8.852 9.396,-18.946 16.073,-30.282 l 2.563,-13.744 c -2.174,-10.249 -1.786,-21.12 1.165,-32.612 -7.299,-7.299 -14.598,-9.628 -21.896,-6.988 -3.261,4.659 -6.056,11.647 -8.386,20.964 -4.038,0.155 -7.92,-6.134 -11.647,-18.868 l -0.235,9.086"
   id="Bicep" /><path
   id="path3244"
   style="fill:#bccbde"
   d="m 522.402,394.37 -6.988,-9.551 c -11.803,4.503 -12.501,22.285 -2.097,53.343 l -7.92,18.868 c 1.087,-8.386 -1.319,-16.693 -7.221,-24.925 h -0.233 l -7.454,-1.63 -5.591,-0.699 -2.795,-0.232 -21.431,-0.699 h -0.466 l -0.232,-0.233 c -3.572,-0.932 -7.144,-2.174 -10.716,-3.727 -0.155,8.541 1.165,21.12 3.96,37.736 l 9.317,46.122 c -0.932,25.779 1.709,49.85 7.92,72.212 l 3.96,14.442 h 3.262 l 4.892,-33.077 c 5.125,-2.485 7.765,-6.678 7.92,-12.579 4.504,6.057 9.085,9.162 13.744,9.317 l 6.521,11.182 v -7.92 l 3.262,-23.993 v -0.466 l 12.579,-79.899 v -4.658 c 0.155,-13.2 -1.398,-30.05 -4.659,-50.549 l 0.466,-8.385 M 95.421,375.268 c -2.795,3.882 -4.193,8.231 -4.193,13.045 l -0.466,7.221 0.466,8.386 -1.165,7.688 c -2.485,17.082 -3.649,31.369 -3.494,42.86 v 4.893 l 14.442,94.807 c 4.969,-3.727 6.6,-12.113 4.892,-25.157 3.417,7.609 8.153,13.666 14.209,18.169 -0.311,-10.87 -1.63,-21.12 -3.96,-30.748 5.901,6.212 11.414,7.144 16.539,2.795 -0.932,9.008 -1.476,18.48 -1.631,28.419 l 3.727,7.222 c 5.28,0 10.25,-3.728 14.908,-11.182 0.932,-10.87 1.243,-22.052 0.932,-33.543 l 1.63,-6.522 1.631,-7.92 v -0.233 l 0.233,-1.165 1.165,-6.056 2.096,-10.482 2.33,-12.813 0.233,-1.397 0.466,-2.563 3.494,-30.282 v -0.466 -1.164 -0.699 -1.863 -0.466 l -5.59,-9.784 -1.165,0.699 v -1.165 l 0.233,-1.164 c -8.696,-3.883 -15.374,-10.172 -20.033,-18.869 l -7.221,4.659 c -2.64,-11.181 -4.503,-21.896 -5.591,-32.146 l -8.153,-7.221 -7.687,-9.317 c -3.572,3.882 -7.609,9.396 -12.113,16.539 l -1.164,6.985" /><path
   id="Hamstrings"
   style="fill:#bccbde"
   d="m 430.856,428.845 -13.511,1.863 -10.948,-0.232 -13.045,1.397 c -6.056,8.386 -8.541,16.771 -7.454,25.157 l -7.92,-18.868 c 10.405,-31.059 9.629,-48.84 -2.329,-53.343 l -6.755,9.551 0.232,8.385 c -3.261,20.499 -4.814,37.349 -4.659,50.549 l 0.233,4.658 15.84,104.358 v 7.92 l 6.522,-11.182 c 4.504,-0.155 9.085,-3.261 13.743,-9.317 0.155,5.901 2.796,10.094 7.92,12.579 l 4.659,33.077 h 3.494 l 3.96,-14.442 c 6.057,-22.362 8.696,-46.433 7.92,-72.212 l 1.397,-6.522 7.921,-39.6 c 2.795,-16.616 4.037,-29.195 3.727,-37.736 l -10.947,3.96 m -191.244,-53.577 -0.932,-6.988 -12.346,-16.539 -7.687,9.317 -8.386,7.221 c -1.087,10.25 -2.951,20.965 -5.591,32.146 l -6.988,-4.659 c -4.814,8.697 -11.569,14.986 -20.266,18.869 l -6.29,11.414 0.233,0.232 v 2.097 4.426 l 0.233,1.397 v 1.863 l 0.466,5.824 0.233,1.397 2.795,19.8 v 0.466 l 3.494,18.636 2.563,13.045 0.233,0.466 3.028,13.743 v 0.233 0.466 c -0.311,11.491 0.078,22.673 1.165,33.543 v 0.466 c 4.503,7.144 9.396,10.716 14.675,10.716 l 3.727,-7.222 -1.863,-28.419 c 5.125,4.349 10.638,3.417 16.539,-2.795 -2.329,9.628 -3.572,19.878 -3.727,30.748 5.901,-4.503 10.638,-10.56 14.209,-18.169 -1.864,13.044 -0.233,21.431 4.892,25.157 l 14.442,-94.807 0.233,-4.893 c 0,-11.491 -1.165,-25.778 -3.494,-42.86 l -1.397,-7.688 0.699,-8.386 -0.699,-7.221 c 0,-4.811 -1.398,-9.16 -4.193,-13.042" /><g
   id="g85">
                    <path
   style="fill:none;stroke:#999999;stroke-width:6;stroke-linecap:round;stroke-linejoin:round"
   inkscape:connector-curvature="0"
   id="path87"
   d="m 476.047,67.553 2.796,-6.755 v -0.233 l 0.466,-1.397 0.932,-2.795 C 484.744,38.669 478.3,25.78 460.907,17.705 c -4.659,-2.019 -9.24,-3.106 -13.744,-3.261 l -1.164,-0.233 H 444.6 l -1.164,0.233 c -4.504,0.155 -9.008,1.242 -13.511,3.261 -17.548,8.075 -23.993,20.964 -19.334,38.668 l 0.698,2.795 0.466,1.397 0.233,0.233 2.563,6.755 m 64.758,-8.386 0.698,4.892 -4.192,22.596 c 3.882,0.155 5.979,-2.873 6.289,-9.085 2.95,-5.59 4.736,-10.094 5.357,-13.511 0.621,-5.28 -1.786,-7.842 -7.221,-7.687 M 445.998,14.209 h 0.698 l 0.466,0.233 M 444.6,14.209 h -0.466 l -0.698,0.233 m -32.147,44.725 -0.466,4.892 3.96,22.596 c 2.951,7.144 3.805,16.073 2.563,26.788 l 7.92,-31.913 19.334,3.96 20.499,-3.96 m 8.619,31.912 c -1.553,-10.715 -0.854,-19.645 2.097,-26.788 m -61.032,0 c -3.882,0.155 -5.9,-2.873 -6.057,-9.085 -3.105,-5.59 -4.892,-10.094 -5.357,-13.511 -0.776,-5.28 1.631,-7.842 7.222,-7.687 m 23.294,73.377 11.647,-27.953 11.646,27.953 -11.414,13.744 c -5.124,-4.814 -9.084,-9.395 -11.879,-13.744 m -20.033,85.49 c -0.311,-13.045 -2.795,-26.089 -7.454,-39.134 -9.317,-1.087 -15.84,3.184 -19.567,12.812 l -3.261,0.932 c 11.336,4.347 21.43,12.811 30.282,25.39 l 0.466,0.699 -0.466,0.466 -0.698,16.539 h 0.466 l -0.233,0.233 24.925,54.275 h 13.511 v -0.233 c 6.367,-18.946 14.83,-37.038 25.391,-54.275 -0.776,-5.746 -1.087,-11.415 -0.932,-17.005 0.311,-13.511 2.873,-26.943 7.687,-40.299 h 0.233 l 1.863,-5.357 c 7.765,-13.666 18.558,-20.111 32.379,-19.334 l -44.725,-37.503 m -59.867,101.794 v 1.165 l -11.414,14.442 10.716,2.097 0.232,0.233 c -9.007,6.677 -21.12,7.998 -36.339,3.96 l -1.863,9.783 4.193,39.6 c 2.174,6.678 3.571,13.821 4.192,21.431 6.678,2.33 14.831,8.153 24.459,17.471 l 7.221,-12.812 c 8.387,-15.374 16.073,-23.76 23.062,-25.158 M 406.397,176.104 404.3,170.281 c -7.765,-13.666 -18.479,-20.033 -32.146,-19.102 -4.659,-0.466 -8.153,1.553 -10.482,6.057 -18.324,1.087 -27.409,21.431 -27.254,61.03 v 0.233 c 5.901,-8.542 14.209,-14.908 24.925,-19.102 l 17.005,-2.795 h 0.698 c 1.553,-3.261 3.728,-5.513 6.522,-6.755 M 484.2,175.638 c 9.783,-0.776 17.471,3.96 23.061,14.209 2.641,0.311 5.048,2.562 7.222,6.755 l 17.005,2.329 0.698,0.233 c 9.474,3.261 17.549,9.396 24.227,18.402 -0.155,-38.979 -9.24,-59.089 -27.255,-60.332 -2.484,-4.503 -5.979,-6.522 -10.481,-6.057 l -0.233,-0.233 m -3.962,45.659 c 4.349,3.261 6.057,8.541 5.125,15.84 -4.038,8.23 -5.901,16.461 -5.591,24.692 l 1.397,9.783 c 2.174,14.753 5.746,28.497 10.715,41.231 l -0.932,4.193 12.113,20.499 -6.522,-54.275 6.988,-12.113 c 2.64,-14.908 0.621,-30.593 -6.057,-47.054 l -0.232,-0.466 m -54.274,34.008 11.181,-2.097 -11.88,-14.908 c 8.852,-12.89 19.102,-21.586 30.748,-26.089 m 30.515,56.605 21.664,28.186 c -0.466,-9.784 -1.476,-16.073 -3.028,-18.868 1.863,-11.802 1.863,-24.304 0,-37.504 v -0.699 m -104.591,69.649 h 0.232 l 1.864,0.699 c 5.745,2.329 11.88,8.852 18.402,19.567 l 10.715,17.471 2.563,-2.563 2.795,-2.33 c 5.125,-4.659 9.861,-8.075 14.21,-10.25 h 0.232 l 4.426,-1.863 c 0.466,-7.609 1.786,-14.753 3.96,-21.431 l 4.193,-39.6 m -1.396,-9.782 c -15.529,4.193 -27.798,2.795 -36.805,-4.193 m 8.386,89.45 -2.563,2.795 -1.863,1.863 -0.699,0.466 -4.426,4.426 5.357,7.221 c 12.269,0.777 21.741,3.572 28.419,8.386 0,-3.106 -0.621,-5.047 -1.863,-5.824 2.329,-5.28 2.718,-13.588 1.165,-24.925 l -1.864,-8.852 m -24.226,17.006 v 0.233 m -1.863,1.863 1.863,-2.096 m 66.621,-25.856 -5.591,13.743 h -6.289 l 3.262,19.334 5.124,-0.233 1.165,-0.932 c 3.105,-2.951 5.28,-7.92 6.522,-14.908 l 0.232,-0.466 v -0.233 l 0.233,-0.466 v -0.233 l 0.232,-0.699 0.466,-5.125 v -1.397 c -0.619,-3.571 -2.405,-6.367 -5.356,-8.385 l 0.233,0.233 h 0.232 c 2.796,2.019 4.426,4.736 4.892,8.153 m -0.465,6.522 -0.232,0.932 m -29.119,-22.596 c -0.932,4.659 -0.621,8.463 0.932,11.414 -0.466,20.033 2.951,37.969 10.25,53.809 6.057,10.405 10.87,21.042 14.442,31.913 2.329,-20.499 -0.932,-39.6 -9.783,-57.303 m -3.262,-19.334 h -0.466 m 13.511,76.638 0.698,0.466 5.824,3.96 1.164,-2.562 v -0.466 l 0.233,-1.165 v -1.397 -1.864 l -6.755,-51.247 -4.659,-4.193 m 6.524,-14.909 c 9.007,33.233 12.967,52.567 11.88,58.002 l 6.057,25.623 0.698,-5.357 c 0.932,-5.901 0.932,-11.803 0,-17.704 0,-15.219 -1.164,-30.438 -3.494,-45.657 2.175,-4.814 2.175,-11.569 0,-20.266 0.932,-13.821 -2.252,-25.856 -9.55,-36.106 l -9.784,24.459 m -97.836,-11.879 2.097,0.699 m -70.349,20.033 -2.097,8.852 c -1.553,11.337 -1.087,19.645 1.397,24.925 -1.397,0.776 -2.096,2.64 -2.096,5.591 6.678,-4.659 16.15,-7.376 28.419,-8.153 l 5.357,-7.221 -6.057,-6.057 -0.699,-0.466 h 0.233 l 0.466,0.466 m -27.718,21.43 v 0.233 c -3.417,6.056 -5.901,15.219 -7.454,27.487 -2.796,3.882 -4.271,8.231 -4.426,13.045 -0.311,2.329 -0.389,4.736 -0.233,7.221 l 6.755,-9.551 c 15.375,-19.412 31.681,-27.875 48.918,-25.391 -1.708,-7.144 -6.755,-14.209 -15.141,-21.198 m -28.884,232.011 6.521,-11.182 c 4.504,-0.155 9.085,-3.261 13.744,-9.317 5.125,-19.567 6.522,-40.842 4.192,-63.826 l 2.796,-23.294 c 0.621,-11.025 0.155,-21.741 -1.397,-32.146 l -13.045,1.397 c -6.057,8.386 -8.541,16.771 -7.454,25.157 l -0.233,5.591 c -1.397,34.631 -4.348,59.788 -8.852,75.474 m 11.88,201.494 4.193,17.471 h 6.988 c -1.709,-29.351 -7.609,-57.847 -17.704,-85.489 5.746,-7.144 9.551,-15.84 11.414,-26.089 l 0.699,-56.372 c 0.155,-10.094 -2.252,-20.11 -7.222,-30.05 m 13.745,-9.318 c 0.155,5.901 2.795,10.094 7.92,12.579 l 3.261,23.76 c 0.777,-27.643 5.979,-63.36 15.607,-107.153 l 4.659,-16.306 c 3.571,-15.063 3.105,-26.322 -1.398,-33.776 l -13.51,1.863 -10.948,-0.232 m 70.115,173.074 2.795,-17.471 c -0.776,-27.643 -5.901,-63.36 -15.374,-107.153 -2.174,-5.9 -3.805,-11.336 -4.892,-16.306 -3.572,-15.063 -3.028,-26.322 1.631,-33.776 l -11.415,-3.96 m 30.982,308.648 2.563,23.061 c 4.193,-22.052 4.581,-44.104 1.165,-66.155 v -19.566 c 5.435,-6.522 10.017,-14.986 13.743,-25.391 l -0.698,-56.372 c -3.572,-15.063 -8.387,-23.993 -14.442,-26.788 l -3.262,23.76 M 449.025,425.816 c -2.95,-22.207 2.873,-44.026 17.471,-65.457 1.554,-7.144 6.522,-14.209 14.908,-21.198 m -39.833,86.655 -10.948,3.96 m -6.289,-69.416 c 14.442,21.431 20.188,43.25 17.237,65.457 m 117.17,-36.107 -0.233,1.631 7.222,-17.238 m -7.222,17.238 0.233,-0.466 v -2.563 m -7.221,1.631 -8.386,9.551 c -2.019,2.329 -3.727,6.134 -5.124,11.414 -0.621,3.105 -0.621,5.357 0,6.755 -4.659,8.076 -6.135,14.909 -4.426,20.499 1.087,2.02 2.95,2.02 5.59,0 2.951,-3.571 4.892,-9.007 5.824,-16.306 3.261,0.155 5.823,2.174 7.687,6.057 -0.155,3.416 0.466,6.367 1.863,8.852 -3.416,2.484 -4.736,5.668 -3.96,9.551 l -11.414,3.96 c -2.795,3.727 -3.571,5.901 -2.329,6.522 l 2.329,-0.233 -3.028,1.165 c -2.019,1.553 -1.94,3.494 0.233,5.823 h 3.96 c -2.484,1.863 -2.407,3.417 0.233,4.659 4.348,-1.087 8.386,-2.64 12.112,-4.659 l 10.716,-9.085 6.289,-20.032 c 2.329,-2.02 2.329,-8.23 0,-18.636 l 2.097,-16.073 M 466.496,360.36 c 17.083,-2.484 33.311,5.979 48.686,25.391 l 6.987,9.551 -0.466,-7.221 c -0.155,-4.814 -1.553,-9.163 -4.192,-13.045 -1.708,-12.268 -4.271,-21.431 -7.688,-27.487 m 4.426,191.244 c -4.503,-15.685 -7.454,-40.765 -8.852,-75.24 l -0.232,-5.591 c 1.087,-8.386 -1.32,-16.693 -7.222,-24.924 h -0.232 l -13.045,-2.33 c -1.553,10.716 -2.019,21.664 -1.397,32.845 0.466,7.609 1.397,15.374 2.795,23.294 -2.329,22.984 -0.932,44.259 4.193,63.826 4.503,6.057 9.084,9.162 13.743,9.317 l 6.522,11.182 m 15.84,-112.277 v -4.659 c 0.155,-13.2 -1.397,-30.05 -4.659,-50.548 l 0.466,-8.386 m -6.987,-9.552 c -11.803,4.503 -12.502,22.285 -2.097,53.343 l -7.92,18.868 m -7.222,-24.923 7.454,2.329 c 2.796,1.087 5.357,2.329 7.688,3.727 m -98.534,-107.153 30.282,28.186 31.214,-28.186 m -15.607,97.835 24.226,0.932 m 29.816,-234.105 c -3.883,8.075 -12.579,19.489 -26.09,34.242 10.716,-0.311 21.12,-6.445 31.215,-18.402 M 86.569,459.36 v -4.893 c -0.155,-11.491 1.009,-25.778 3.494,-42.86 l 1.165,-7.688 -0.466,-8.386 0.466,-7.221 c 0,-4.814 1.398,-9.163 4.193,-13.045 l 1.165,-6.988 c 1.553,-8.696 3.727,-15.529 6.522,-20.499 0,-2.951 0.699,-4.814 2.096,-5.591 l -1.863,-6.056 c -0.777,-4.97 -0.621,-11.259 0.466,-18.868 l 2.096,-9.085 -3.028,-17.005 -1.165,-4.193 -4.193,-39.833 -2.563,13.744 -8.153,27.72 1.165,4.193 c 0.777,4.659 0.389,8.386 -1.165,11.181 0.466,20.033 -2.951,37.969 -10.25,53.81 v 0.233 c -6.367,10.715 -11.336,21.664 -14.908,32.845 l 8.386,9.084 c 1.863,2.174 3.494,5.979 4.892,11.414 0.621,2.95 0.621,5.202 0,6.756 4.659,7.92 6.134,14.753 4.426,20.498 -1.087,2.02 -2.951,2.02 -5.59,0 -2.951,-3.571 -4.892,-9.084 -5.824,-16.538 -3.261,0.311 -5.746,2.329 -7.454,6.056 0,3.572 -0.699,6.601 -2.097,9.085 3.261,2.484 4.582,5.668 3.96,9.551 l 11.414,3.96 c 2.795,3.727 3.649,5.823 2.562,6.289 h -2.562 l 2.795,1.165 c 2.019,1.397 2.097,3.184 0.233,5.357 l -0.233,0.233 h -3.96 c 2.64,1.863 2.64,3.494 0,4.892 -4.814,-1.242 -9.084,-2.95 -12.812,-5.125 -3.882,-2.329 -7.299,-5.202 -10.25,-8.618 l -6.29,-20.267 c -2.329,-1.863 -2.329,-7.997 0,-18.402 v -0.232 l -2.562,-21.431 c -1.087,-5.901 -1.087,-11.725 0,-17.471 -0.155,-13.045 0.621,-26.012 2.329,-38.901 l 0.932,-6.755 c -2.174,-4.814 -2.174,-11.569 0,-20.266 -0.466,-7.144 0.156,-13.821 1.864,-20.033 1.553,-5.746 4.115,-11.026 7.687,-15.84 v -0.466 c 0.466,-9.628 1.475,-15.917 3.028,-18.868 -2.019,-11.802 -2.019,-24.226 0,-37.271 l 0.233,-9.085 c 1.242,-33.699 10.25,-51.092 27.021,-52.179 2.485,-4.503 5.979,-6.445 10.482,-5.824 l 45.424,-37.736 0.466,-12.579 v -0.699 c -0.466,-5.125 -1.476,-9.706 -3.028,-13.744 -4.038,0.155 -6.134,-2.873 -6.29,-9.085 -3.106,-5.435 -4.814,-9.861 -5.125,-13.277 -0.776,-5.28 1.553,-7.92 6.988,-7.92 -4.504,-17.548 1.941,-30.438 19.334,-38.668 4.659,-1.864 9.24,-2.951 13.744,-3.261 h 3.727 c 4.348,0.311 8.852,1.397 13.51,3.261 17.393,8.23 23.838,21.12 19.334,38.668 5.59,0 7.998,2.64 7.221,7.92 -0.466,3.417 -2.252,7.842 -5.358,13.277 -0.311,6.212 -2.329,9.24 -6.056,9.085 -1.553,3.727 -2.485,7.92 -2.795,12.579 -0.311,4.348 -0.155,9.085 0.466,14.209 v 0.233 l 0.466,0.233 44.492,37.503 0.699,-0.233 c 4.193,-0.155 7.454,1.864 9.784,6.057 h 0.233 c 16.617,1.242 25.546,18.635 26.788,52.179 v 0.233 l 0.233,7.92 c 1.553,13.666 1.32,26.4 -0.699,38.203 l 3.727,19.101 0.233,0.233 c 3.417,4.814 5.901,10.094 7.454,15.84 1.708,6.212 2.33,12.89 1.864,20.033 2.174,8.696 2.174,15.452 0,20.266 l 0.932,6.755 c 1.708,12.89 2.563,25.856 2.563,38.901 1.087,5.746 1.087,11.569 0,17.471 v 0.233 l -2.563,21.43 c 2.174,10.405 2.174,16.539 0,18.402 l -6.29,20.267 c -2.95,3.416 -6.367,6.289 -10.249,8.618 l -12.812,5.125 c -2.64,-1.397 -2.64,-3.028 0,-4.892 h -4.193 l -0.233,-0.233 c -2.019,-2.174 -1.941,-3.96 0.233,-5.357 l 3.028,-1.165 h -2.563 c -1.087,-0.466 -0.233,-2.563 2.563,-6.289 l 11.414,-3.96 c -0.776,-3.883 0.466,-7.066 3.727,-9.551 -1.397,-2.484 -2.019,-5.513 -1.864,-9.085 -1.863,-3.727 -4.426,-5.745 -7.687,-6.056 -0.932,7.454 -2.795,12.967 -5.59,16.538 -2.795,2.02 -4.737,2.02 -5.824,0 -1.708,-5.745 -0.155,-12.578 4.659,-20.498 -0.777,-1.554 -0.777,-3.806 0,-6.756 1.242,-5.436 2.873,-9.24 4.892,-11.414 l 8.386,-9.317 c -3.882,-11.337 -8.852,-22.207 -14.908,-32.612 l -0.233,-0.233 c -7.299,-15.84 -10.715,-33.777 -10.25,-53.81 -1.397,-2.485 -1.553,-6.755 -0.466,-12.812 l 0.466,-2.562 c -3.417,-8.852 -6.134,-18.092 -8.153,-27.72 l -2.563,-13.744 -3.96,39.6 v 0.233 l -1.397,4.193 c -1.398,5.436 -2.33,11.104 -2.795,17.005 l 2.097,9.085 c 0.932,7.609 1.009,13.821 0.233,18.635 v 0.233 0.233 l -1.631,5.823 c 1.398,0.777 2.097,2.64 2.097,5.591 2.64,4.969 4.814,11.802 6.522,20.499 l 0.932,6.988 c 2.795,3.882 4.193,8.231 4.193,13.045 l 0.699,7.221 -0.699,8.386 1.397,7.688 c 2.33,17.082 3.494,31.369 3.494,42.86 l -0.233,4.893 m -48.448,249.947 v -0.232 m -1.864,-44.26 -0.233,-0.233 M 185.569,544.15 v -0.466 m -1.164,-33.776 v -0.466 m -3.029,-13.743 -0.233,-0.466 m 17.005,-408.346 3.96,-22.362 -0.466,-4.892 -0.466,1.398 h -0.233 l -2.562,6.755 m 3.262,-8.153 0.699,-3.028 m 34.241,157.934 c 7.144,-7.299 14.365,-9.628 21.664,-6.988 -5.28,-15.53 -15.685,-30.36 -31.214,-44.492 -18.946,-3.882 -35.64,-1.32 -50.082,7.688 -6.833,17.703 -6.833,37.193 0,58.468 8.386,4.97 17.704,4.97 27.953,0 l 31.679,-14.676 c 2.795,11.492 3.106,22.362 0.932,32.611 m -0.932,-32.611 -16.539,12.579 c 8.386,14.753 12.889,34.63 13.51,59.633 m 6.524,-25.857 16.306,30.282 c 5.901,12.579 9.318,22.751 10.25,30.516 v -18.635 l 3.028,-11.88 c 1.553,-7.92 2.174,-16.15 1.864,-24.691 -0.466,-15.219 -2.019,-27.875 -4.659,-37.97 -2.484,-9.317 -5.357,-16.306 -8.619,-20.964 m 20.032,2.328 c -3.882,12.579 -7.687,18.791 -11.414,18.635 m -39.833,-65.456 c 4.659,-5.28 12.734,-7.144 24.226,-5.59 m -54.974,-43.328 c -0.932,16.772 2.174,29.661 9.318,38.668 l 35.174,-1.165 m 130.679,60.798 c 9.939,11.958 20.267,18.092 30.981,18.402 -13.511,-14.598 -22.129,-25.934 -25.856,-34.009 l -0.232,-0.233 c -4.349,3.417 -5.98,8.697 -4.893,15.84 3.883,8.23 5.746,16.461 5.591,24.692 m -244.355,-180.53 0.932,3.028 c -0.621,1.087 -0.854,2.718 -0.699,4.892 l 4.193,22.362 m 3.028,14.444 c 4.814,5.435 9.628,9.473 14.442,12.113 8.696,4.503 17.393,4.193 26.089,-0.932 l 6.522,-4.659 8.153,-8.386 M 56.753,209.647 c 3.727,12.734 7.609,19.023 11.647,18.868 2.33,-9.317 5.125,-16.306 8.386,-20.964 5.28,-15.53 15.763,-30.36 31.447,-44.492 -4.814,-5.28 -12.967,-7.144 -24.459,-5.59 m 96.904,-44.958 c 0.466,17.548 -3.106,34.786 -10.715,51.713 4.659,-8.23 10.948,-10.715 18.868,-7.454 3.417,-8.542 3.417,-17.083 0,-25.624 l 7.454,-17.005 m -56.605,-0.233 7.221,17.238 c -3.417,8.541 -3.417,17.082 0,25.624 8.075,-3.261 14.442,-0.776 19.101,7.454 -7.609,-16.927 -11.414,-33.854 -11.414,-50.781 m -55.906,101.096 16.306,12.579 16.771,12.346 c -2.795,4.97 -2.795,12.346 0,22.129 11.958,-4.038 23.916,-5.668 35.873,-4.892 v -20.499 l -9.317,-6.988 c -8.386,4.97 -17.704,4.97 -27.953,0 l -31.68,-14.675 c -7.299,-7.299 -14.598,-9.628 -21.896,-6.988 m 31.447,-44.492 c 18.946,-3.882 35.64,-1.32 50.083,7.688 6.678,17.703 6.678,37.193 0,58.468 M 139.68,113.908 c 0.932,16.927 -2.174,29.894 -9.318,38.901 l -36.106,-1.165 m 37.504,109.949 -0.466,0.932 c -2.64,6.677 -2.251,16.228 1.165,28.651 l 1.165,3.727 12.346,-3.727 c 7.144,-1.708 14.365,-2.562 21.664,-2.562 v -31.913 c 11.958,-0.776 23.916,0.854 35.873,4.892 h 0.233 c 2.64,-9.783 2.563,-17.16 -0.233,-22.129 l 16.539,-12.346 m -116.705,109.016 11.414,9.783 c 12.579,12.424 19.567,20.732 20.965,24.925 0,-2.485 1.242,-6.911 3.727,-13.278 l -0.233,-0.233 c -1.863,-10.715 -3.028,-22.207 -3.494,-34.475 -3.572,-9.007 -4.271,-18.325 -2.097,-27.953 m 2.097,27.953 c 10.56,-4.814 21.197,-7.454 31.913,-7.92 v -26.322 l 21.664,2.562 12.346,3.727 v -0.233 l 0.932,-3.494 c 3.417,-12.423 3.805,-21.974 1.165,-28.651 l -0.233,-0.932 M 68.4,228.515 c -2.795,10.094 -4.348,22.75 -4.659,37.97 -0.311,8.541 0.311,16.771 1.863,24.691 l 3.028,11.88 v 18.635 c 0.776,-7.765 4.193,-17.937 10.25,-30.516 4.038,-8.852 9.396,-18.946 16.073,-30.282 m -41.463,14.443 15.141,46.355 -15.374,62.894 8.386,6.29 m -18.636,-52.645 7.92,15.84 v 22.13 l 2.33,8.386 11.647,25.391 -24.226,-15.374 m 143.492,-0.7 0.932,-0.699 0.233,-0.466 -1.165,1.165 -11.181,7.92 h -5.358 -5.357 l -12.113,-6.988 c -4.814,-11.181 -8.386,-23.605 -10.715,-37.271 m 14.441,138.135 -4.426,-26.556 -0.932,-5.357 -0.233,-0.233 -4.659,-16.771 -3.028,-10.716 c -4.348,-12.423 -7.842,-24.303 -10.482,-35.64 -2.64,-11.181 -4.503,-21.896 -5.591,-32.146 l -8.153,-7.221 -0.466,2.097 c -1.863,19.256 4.271,44.958 18.402,77.104 2.64,6.057 5.28,13.821 7.92,23.294 l 1.398,5.357 c 2.951,11.182 5.28,24.925 6.988,41.231 M 114.755,345.917 c -1.864,1.243 -3.882,3.184 -6.057,5.824 l 7.687,9.317 m 13.744,39.368 7.221,-4.659 c 4.659,8.697 11.336,14.986 20.033,18.869 l 6.522,11.414 M 115.92,363.155 c -1.242,6.212 -4.271,13.666 -9.084,22.362 -5.436,24.07 -6.445,50.082 -3.028,78.035 1.242,10.405 3.106,21.043 5.59,31.913 2.795,6.678 5.047,13.666 6.755,20.965 5.901,6.212 11.414,7.144 16.539,2.795 2.019,-18.169 5.668,-34.94 10.948,-50.315 m 33.777,-54.274 c -2.019,14.598 0.078,30.903 6.29,48.917 l 1.863,5.591 5.824,-22.362 c -7.144,-8.542 -11.803,-19.258 -13.977,-32.146 8.696,-3.883 15.452,-10.172 20.266,-18.869 l 6.988,4.659 c 2.64,-11.181 4.504,-21.896 5.591,-32.146 l 8.386,-7.221 7.687,-9.317 -6.289,-5.824 c -12.579,12.424 -19.567,20.732 -20.965,24.925 0,-2.485 -1.165,-6.755 -3.494,-12.812 -2.33,12.889 -5.746,24.458 -10.25,34.708 m -41.697,54.042 c 6.988,-8.541 11.492,-18.48 13.51,-29.816 V 415.8 l 0.233,-1.164 m 13.744,11.646 v -0.232 l 6.29,-11.414 m -68.718,-62.895 c -3.572,3.882 -7.609,9.396 -12.113,16.539 m 10.249,17.238 -16.772,26.09 m 105.523,-53.577 0.233,-0.466 c 1.863,-10.56 3.028,-22.129 3.494,-34.708 -10.56,-4.814 -21.12,-7.454 -31.68,-7.92 v 86.887 M 375.184,246.917 c -2.174,14.753 -5.746,28.497 -10.716,41.231 l 1.165,4.193 c 0.776,4.659 0.389,8.463 -1.165,11.414 0.467,20.033 -2.95,37.969 -10.249,53.809 -6.212,10.715 -11.104,21.664 -14.675,32.845 l 8.152,9.085 c 2.019,2.329 3.649,6.134 4.892,11.414 0.621,3.105 0.621,5.357 0,6.755 4.659,8.076 6.212,14.909 4.659,20.499 -1.242,2.02 -3.184,2.02 -5.823,0 -2.951,-3.571 -4.814,-9.007 -5.591,-16.306 -3.262,0.155 -5.823,2.174 -7.688,6.057 0,3.416 -0.621,6.367 -1.863,8.852 3.262,2.484 4.504,5.668 3.728,9.551 l 11.414,3.96 c 2.795,3.727 3.649,5.901 2.563,6.522 l -2.563,-0.233 3.028,1.165 c 2.019,1.553 1.94,3.494 -0.233,5.823 h -3.727 c 2.484,1.863 2.406,3.417 -0.233,4.659 l -12.113,-4.659 c -4.192,-2.329 -7.765,-5.357 -10.715,-9.085 l -6.289,-20.032 c -2.33,-2.02 -2.33,-8.23 0,-18.636 l -2.097,-15.141 -0.699,-6.29 c -1.087,-5.901 -1.087,-11.803 0,-17.704 0,-15.219 1.165,-30.438 3.494,-45.657 -2.174,-4.814 -2.174,-11.569 0,-20.266 -0.932,-13.666 2.174,-25.624 9.317,-35.873 v -0.233 l 0.233,-0.233 c 0.311,-9.628 1.32,-15.84 3.028,-18.635 -2.019,-11.802 -2.019,-24.226 0,-37.271 m 18.17,27.955 -21.197,27.953 v 0.233 l -0.233,0.233 10.017,24.459 5.357,13.51 h 6.756 v -0.233 l 6.755,-54.042 -7.455,-12.113 c -2.484,-15.063 -0.232,-30.748 6.756,-47.054 m 6.289,92.943 -12.113,20.266 -0.232,0.233 -3.262,19.334 c -9.007,17.703 -12.501,37.115 -10.481,58.235 l -5.824,3.494 -1.164,-2.562 -7.222,-17.238 -6.289,26.556 m 6.288,-26.555 c -1.087,-5.435 2.795,-24.77 11.647,-58.002 -2.33,-7.765 -0.932,-13.355 4.192,-16.771 m 8.852,32.843 -5.124,-0.233 -1.165,-0.932 -4.658,4.193 -5.358,35.407 c -1.397,10.094 -1.785,17.005 -1.164,20.732 m 11.18,-60.332 c -3.261,-2.951 -5.513,-7.92 -6.755,-14.908 M 201.643,294.903 c 2.019,9.628 1.32,18.869 -2.097,27.72 v 0.233 h -0.233 m 67.32,-1.164 15.141,-46.355 m -8.153,115.306 8.153,-6.057 -15.141,-62.894 m 15.141,62.894 2.563,-8.386 v -22.129 l 7.687,-15.84 m -65.69,13.51 12.346,16.539 m -20.033,-7.221 c 1.398,7.61 4.503,15.763 9.318,24.459 4.193,7.765 9.938,16.461 17.237,26.09 m -60.797,97.834 c 1.553,-15.84 3.882,-29.351 6.988,-40.532 l 1.397,-5.357 c 2.64,-9.473 5.28,-17.237 7.92,-23.294 13.977,-32.146 19.956,-58.546 17.937,-79.2 m 63.127,23.527 -11.414,25.391 24.226,-15.141 m 74.075,0.465 0.233,8.386 c -3.262,20.498 -4.814,37.348 -4.659,50.548 l 0.232,4.659 m -132.775,-122.76 -11.647,9.783 m -43.094,-116.703 -9.318,6.988 m -52.645,-9.084 c -8.386,14.753 -12.812,34.708 -13.278,59.866 m 102.96,113.442 -13.277,46.355 M 97.518,247.15 c -2.174,-10.249 -1.786,-21.12 1.165,-32.611 m 129.282,170.979 c 5.435,24.07 6.522,50.082 3.261,78.035 l -5.591,31.913 -6.988,20.965 c -2.33,9.628 -3.572,19.878 -3.727,30.748 5.901,-4.503 10.638,-10.56 14.209,-18.169 -1.864,13.044 -0.233,21.431 4.892,25.157 m -15.374,-37.736 c -5.901,6.212 -11.414,7.144 -16.539,2.795 l 1.863,28.419 -3.727,7.222 c -5.28,0 -10.172,-3.572 -14.675,-10.716 m 9.784,49.383 c 6.367,6.522 10.172,17.16 11.414,31.913 l 0.932,27.254 c 0.466,28.729 -2.096,47.52 -7.687,56.372 m 36.339,-30.981 -14.908,42.162 c -9.007,-24.691 -11.259,-49.384 -6.755,-74.075 -2.174,-20.188 -0.699,-37.892 4.426,-53.11 l 5.591,-6.756 7.92,-6.755 m -25.858,45.889 c -6.833,10.56 -9.784,23.604 -8.852,39.134 m -48.452,-195.437 1.864,-5.591 c 6.056,-17.858 7.998,-33.388 5.823,-46.588 m 28.419,52.179 -4.426,26.09 m -64.99,21.197 c 2.33,9.628 3.649,19.878 3.96,30.748 -6.056,-4.503 -10.793,-10.56 -14.209,-18.169 1.708,13.044 0.078,21.431 -4.892,25.157 m 48.684,-10.482 c -4.659,7.454 -9.628,11.182 -14.908,11.182 l -3.727,-7.222 c 0.155,-9.938 0.699,-19.411 1.631,-28.419 m -30.283,60.332 7.92,6.755 5.357,6.756 c 5.125,15.219 6.678,32.922 4.659,53.11 4.349,24.691 2.097,49.384 -6.755,74.075 L 98.915,678.092 m 36.339,31.214 c -5.901,-8.696 -8.619,-27.564 -8.153,-56.604 l 0.932,-27.254 c 1.243,-14.753 5.125,-25.391 11.647,-31.913 m -11.647,31.912 c 6.367,9.783 9.396,21.818 9.085,36.105 l -0.233,3.262 m 65.223,-145.588 c -2.019,-18.169 -5.591,-34.94 -10.715,-50.315 m 33.311,117.402 c 11.026,24.848 9.939,69.494 -3.261,133.941 M 110.33,586.313 c -11.026,24.848 -9.939,69.494 3.261,133.941 M 490.257,550.673 c -0.155,5.901 -2.796,10.094 -7.92,12.579 m -71.514,171.212 -2.795,23.061 c -4.193,-22.052 -4.504,-44.104 -0.932,-66.155 v -19.566 c -5.436,-6.522 -10.017,-14.986 -13.744,-25.391 m 18.403,-59.401 2.563,17.471 m 83.16,41.929 c 1.708,10.249 5.513,18.945 11.414,26.089 -10.249,27.643 -16.15,56.139 -17.703,85.489 h 6.755 l 4.426,-17.471 M 408.494,563.252 c -6.057,2.795 -10.871,11.725 -14.442,26.788 m 102.727,0 c -0.312,-10.094 2.096,-20.11 7.221,-30.05 m -86.654,-446.548 -45.19,37.736 m 20.964,281.627 c -7.144,2.329 -12.269,4.426 -15.374,6.289 l 7.92,18.868 m -10.25,-72.212 c 11.958,4.503 12.734,22.285 2.33,53.343" />
                    <path
   style="fill:none;stroke:#999999;stroke-width:6;stroke-linecap:round;stroke-linejoin:round"
   inkscape:connector-curvature="0"
   id="path89"
   d="m 465.099,81.529 8.619,31.913 m -97.137,425.584 3.728,24.226 v 7.92 8.153 c -10.871,22.518 -13.511,48.84 -7.92,78.967 l 16.072,72.678 v 9.55 m 60.564,-314.704 c -0.155,8.541 1.165,21.12 3.961,37.736 l 9.317,46.123 c -0.932,25.778 1.708,49.849 7.92,72.211 l 6.057,22.596 c -7.609,26.245 -7.688,46.277 -0.233,60.099 0.155,23.139 1.476,46.433 3.96,69.883 M 441.571,425.816 c 2.33,1.708 4.814,1.708 7.454,0 m -7.454,0 c 0.312,8.541 -0.932,21.12 -3.727,37.736 l -9.317,46.123 c 0.776,25.778 -1.864,49.849 -7.92,72.211 l -6.29,22.596 c 7.609,26.245 7.765,46.277 0.466,60.099 -0.311,23.139 -1.63,46.433 -3.96,69.883 4.659,2.795 5.824,9.239 3.494,19.334 2.175,8.386 2.175,16.771 0,25.157 h -44.259 c -2.484,-5.591 -2.484,-8.696 0,-9.317 l 6.988,-3.728 c 1.708,-4.037 4.426,-7.454 8.153,-10.249 -1.553,-4.659 -0.466,-9.706 3.261,-15.142 M 510.522,571.172 v -7.92 l 3.727,-24.459 12.113,-79.898 m -277.899,0.465 -14.442,94.807 -1.397,9.317 v 16.073 l 7.92,79.2 -4.193,19.334 -11.88,53.11 v 9.784 c 3.727,5.435 4.814,10.481 3.261,15.141 3.727,2.64 6.522,6.057 8.386,10.25 l 6.755,3.493 c 2.329,0.777 2.329,3.961 0,9.551 h -44.259 c -2.33,-8.386 -2.33,-16.771 0,-25.157 -2.33,-10.25 -1.165,-16.694 3.494,-19.334 l -2.097,-25.624 m 0.001,-0.232 c -1.087,-14.753 -1.708,-29.506 -1.863,-44.259 m -0.234,-0.233 c -7.143,-13.821 -6.91,-33.698 0.699,-59.633 l -3.261,-11.414 -3.028,-11.414 c -3.261,-12.113 -5.513,-24.77 -6.755,-37.97 m -0.001,-0.465 c -1.087,-10.87 -1.475,-22.052 -1.165,-33.543 v -0.233 m 0.001,-0.467 -3.028,-13.743 m -0.233,-0.466 -6.057,-31.681 c -2.795,-16.461 -4.038,-28.885 -3.727,-37.271 h -0.233 l -7.221,-0.232 c 0.155,8.541 -1.165,21.042 -3.96,37.503 l -6.057,32.146 -3.261,14.442 c 0.311,11.491 0,22.673 -0.932,33.543 l -0.699,6.29 c -1.397,11.025 -3.494,21.74 -6.29,32.146 l -3.028,11.414 -3.028,11.414 c 6.833,24.226 7.454,43.094 1.863,56.604 l -1.63,3.262 -1.631,44.491 -2.329,25.624 c 4.659,2.64 5.901,9.084 3.727,19.334 2.174,8.386 2.174,16.771 0,25.157 H 92.393 c -2.485,-5.59 -2.485,-8.773 0,-9.551 l 6.755,-3.493 c 1.708,-4.193 4.426,-7.61 8.153,-10.25 -1.553,-4.659 -0.466,-9.706 3.261,-15.141 V 731.2 L 98.915,678.09 94.489,658.756 c -5.59,-30.282 -2.951,-56.683 7.92,-79.2 v -16.073 l -1.397,-9.317 -14.443,-94.806 m 277.899,-0.465 12.113,80.132 M 502.369,740.52 v -9.55 l 16.073,-72.678 -7.92,-78.967 v -8.153 m -8.153,169.348 c 3.572,5.436 4.659,10.482 3.262,15.142 3.727,2.795 6.444,6.212 8.152,10.249 l 6.756,3.728 c 2.484,0.621 2.484,3.727 0,9.317 H 476.28 c -2.175,-8.386 -2.175,-16.771 0,-25.157 -2.33,-10.095 -1.087,-16.539 3.727,-19.334" />
                </g>
        </svg>