<?xml version="1.0" encoding="utf-8"?>
<!-- Generator: Adobe Illustrator 13.0.2, SVG Export Plug-In . SVG Version: 6.00 Build 14948)  -->
<!DOCTYPE svg PUBLIC "-//W3C//DTD SVG 1.1//EN" "http://www.w3.org/Graphics/SVG/1.1/DTD/svg11.dtd">
<svg version="1.1" id="Layer_1" onload="init(evt)" xmlns="http://www.w3.org/2000/svg"
            xmlns:xlink="http://www.w3.org/1999/xlink" x="0px" y="0px" width="40%" height="100%"
            viewbox="0 0 612 792" enable-background="new 0 0 612 792" xml:space="preserve">
            <g transform="matrix(1 0 0 1 0 0)">
                <g transform="matrix(1 0 0 1 230 648)">
                    <g transform="matrix(1 0 0 1 0 0)">
                        <path id="Shoulder" fill="#BCCBDE" d="M302.186-448.835c9.474,3.261,17.549,9.396,24.227,18.402c-0.155-38.979-9.24-59.089-27.255-60.332
				c-2.484-4.503-5.979-6.522-10.481-6.057l-0.233-0.233c-13.821-0.776-24.614,5.668-32.379,19.334l-1.863,5.358h-0.233
				c-4.813,13.355-7.376,26.788-7.687,40.299c-0.155,5.59,0.155,11.259,0.932,17.005c9.007,6.988,21.275,8.386,36.805,4.193
				c-0.311-8.231,1.553-16.461,5.591-24.692c0.932-7.299-0.777-12.579-5.125-15.84l17.005,2.329L302.186-448.835 M174.301-477.72
				c-7.765-13.666-18.479-20.033-32.146-19.101c-4.659-0.466-8.153,1.553-10.482,6.057c-18.324,1.087-27.409,21.431-27.254,61.03
				v0.233c5.901-8.542,14.209-14.908,24.925-19.102c5.124-1.863,10.793-2.795,17.005-2.795h0.698l-0.466,0.233l-0.232-0.233
				c-4.349,3.416-5.979,8.696-4.893,15.84c3.883,8.23,5.746,16.461,5.591,24.692c15.219,4.038,27.332,2.717,36.339-3.96
				l-0.232-0.232l0.698-16.539v-1.165c-0.311-13.045-2.795-26.089-7.454-39.134L174.301-477.72 M48.28-438.12v-0.233
				c-1.242-33.543-10.171-50.937-26.788-52.179h-0.233c-11.492-1.553-19.567,0.311-24.226,5.59
				c15.53,14.132,25.934,28.962,31.214,44.492c3.261,4.659,6.134,11.647,8.619,20.964C40.593-419.33,44.397-425.541,48.28-438.12
				 M-153.214-440.449c5.28-15.53,15.763-30.36,31.447-44.492c-4.814-5.28-12.967-7.144-24.459-5.59
				c-16.771,1.087-25.779,18.48-27.021,52.179c3.727,12.734,7.609,19.023,11.647,18.868
				C-159.271-428.802-156.475-435.791-153.214-440.449" ></path>
                    </g>
                </g>
                <g transform="matrix(1 0 0 1 216 844)">
                    <g transform="matrix(1 0 0 1 0 0)">
                        <path id="Tricep" fill="#BCCBDE" d="M340.412-588.23c1.863-11.803,1.863-24.304,0-37.504v-0.699c-6.678-9.007-14.753-15.141-24.227-18.402
				l-0.466,0.233l-0.232-0.466l-17.005-2.329c4.348,3.261,6.057,8.541,5.125,15.84c-4.038,8.23-5.901,16.461-5.591,24.692
				l1.397,9.783c2.174,14.753,5.746,28.497,10.715,41.231l-0.932,4.193l12.113,20.499h6.755l5.591-13.743l9.784-24.459
				C342.975-579.146,341.965-585.436,340.412-588.23 M161.047-606.866c0.155-8.231-1.708-16.461-5.591-24.692
				c-1.087-7.144,0.544-12.424,4.893-15.84c-6.212,0-11.881,0.932-17.005,2.795c-10.716,4.193-19.023,10.56-24.925,19.102
				c-2.019,13.044-2.019,25.468,0,37.271c-1.708,2.795-2.718,9.007-3.028,18.635v0.233l-0.233,0.233l15.375,37.969h6.755v-0.233
				h0.232l12.113-20.266l-1.165-4.193c4.97-12.734,8.542-26.478,10.716-41.231L161.047-606.866" ></path>
                    </g>
                </g>
                <g transform="matrix(1 0 0 1 423 975)">
                    <g transform="matrix(1 0 0 1 0 0)">
                        <path id="Oblique" fill="#BCCBDE" d="M86.357-658.2l-1.863-8.852l-1.863,0.699l-0.932,0.466l-1.631,0.699h-0.233
				c-4.348,2.174-9.084,5.59-14.209,10.249l-2.796,2.33l-2.562,2.795l-1.864,1.863l-0.698,0.466l-4.426,4.426l5.357,7.221
				c12.269,0.776,21.741,3.572,28.419,8.386c0-3.106-0.621-5.047-1.863-5.824C87.522-638.555,87.91-646.863,86.357-658.2
				 M-14.972-649.581h0.232c-9.628-9.318-17.78-15.141-24.458-17.471l-2.097,8.852c-1.553,11.337-1.087,19.645,1.397,24.925
				c-1.397,0.776-2.097,2.64-2.097,5.591c6.678-4.659,16.15-7.376,28.419-8.153l5.357-7.221l-6.057-6.057L-14.972-649.581
				 M-219.261-713.407h0.233l-0.233,0.932c2.64,6.677,2.252,16.228-1.165,28.652l-0.932,3.494v0.233
				c2.019,9.628,1.32,18.869-2.097,27.72v0.233h-0.233c-0.466,12.579-1.631,24.148-3.494,34.708l-0.233,0.466
				c2.329,6.056,3.494,10.327,3.494,12.812c1.397-4.193,8.386-12.501,20.965-24.925c3.571-3.572,7.454-6.833,11.647-9.783v-0.233
				c0.776-4.814,0.699-11.026-0.233-18.635l-2.097-9.085c0.466-5.901,1.397-11.569,2.795-17.004l1.397-4.193v-0.233
				c-0.621-25.002-5.125-44.88-13.51-59.633l-16.539,12.346C-216.699-730.567-216.621-723.19-219.261-713.407 M-290.541-683.823
				c-3.417-12.424-3.805-21.975-1.165-28.652l0.466-0.932c-2.795-9.783-2.795-17.16,0-22.129l-16.771-12.346
				c-8.386,14.753-12.812,34.708-13.278,59.866l1.165,4.193l3.028,17.004l-2.096,9.085c-1.087,7.609-1.243,13.898-0.466,18.868
				l11.414,9.783c12.579,12.424,19.567,20.732,20.965,24.925c0-2.485,1.242-6.911,3.727-13.277l-0.233-0.233
				c-1.863-10.715-3.028-22.208-3.494-34.476c-3.572-9.007-4.271-18.325-2.097-27.953L-290.541-683.823" ></path>
                    </g>
                </g>
                <g transform="matrix(1 0 0 1 410 921)">
                    <g transform="matrix(1 0 0 1 0 0)">
                        <path id="Upper_Abs" fill="#BCCBDE" d="M-206.494-681.537l33.078-24.924l-31.68,14.675c-10.249,4.97-19.567,4.97-27.953,0l-9.318,6.988
				l-9.317-6.988c-8.386,4.97-17.704,4.97-27.953,0l-31.68-14.675l33.078,24.924c-2.795,4.97-2.795,12.346,0,22.129l-0.466,0.932
				c-2.64,6.677-2.251,16.228,1.165,28.651l1.165,3.727l12.346-3.727l21.664-2.562l21.664,2.562l12.346,3.727v-0.233l0.932-3.494
				c3.417-12.423,3.805-21.974,1.165-28.651l-0.233-0.932h0.233C-203.621-669.19-203.699-676.567-206.494-681.537" ></path>
                    </g>
                </g>
                <g transform="matrix(1 0 0 1 554 1239)">
                    <g transform="matrix(1 0 0 1 0 0)">
                        <path id="Lower_Abs" fill="#BCCBDE" d="M-358.181-881.435c1.863-10.56,3.028-22.129,3.494-34.708h0.233v-0.233
				c3.417-8.852,4.115-18.092,2.097-27.72l-12.346-3.727l-21.664-2.562l-21.664,2.562l-12.346,3.727
				c-2.174,9.628-1.475,18.946,2.096,27.953c0.466,12.268,1.631,23.76,3.494,34.476l0.233,0.233
				c2.329,13.666,5.901,26.089,10.715,37.271l12.113,6.988h10.715l11.181-7.92l1.165-1.165c4.503-10.25,7.92-21.819,10.25-34.708
				L-358.181-881.435" ></path>
                    </g>
                </g>
                <g transform="matrix(1 0 0 1 401 1443)">
                    <g transform="matrix(1 0 0 1 0 0)">
                        <path id="Glutes" fill="#BCCBDE" d="M80.404-1103.838c-8.386,6.988-13.354,14.054-14.908,21.198c-14.598,21.431-20.421,43.25-17.471,65.457
				l11.415,3.96l21.43,0.699l2.796,0.232l5.591,0.699l7.454,1.631h0.232l7.454,2.329l7.688,3.727
				c-10.405-31.059-9.706-48.84,2.097-53.343l6.988,9.551l-0.467-7.221c-0.155-4.814-1.553-9.163-4.192-13.045
				c-1.708-12.268-4.271-21.431-7.688-27.487C102.146-1100.266,92.673-1103.061,80.404-1103.838 M40.571-1017.184
				c2.951-22.207-2.795-44.026-17.237-65.457c-1.708-7.144-6.755-14.209-15.141-21.198c-12.269,0.777-21.741,3.494-28.419,8.153
				v0.233c-3.417,6.056-5.901,15.219-7.454,27.487c-2.796,3.882-4.271,8.231-4.426,13.045c-0.311,2.329-0.389,4.736-0.233,7.221
				l6.755-9.551c11.958,4.503,12.734,22.285,2.33,53.343c3.105-1.863,8.23-3.96,15.374-6.289l13.045-1.397l10.948,0.232l13.51-1.863
				L40.571-1017.184 M-170.939-1100.81l1.631-5.823v-0.233l-11.647,9.783l6.289,5.824l12.346,16.539
				c-1.708-8.696-3.882-15.529-6.522-20.499C-168.842-1098.169-169.541-1100.033-170.939-1100.81 M-297.659-1106.866l1.863,6.056
				c-1.397,0.777-2.096,2.64-2.096,5.591c-2.795,4.969-4.97,11.802-6.522,20.499c4.503-7.143,8.541-12.656,12.113-16.539
				l6.057-5.824L-297.659-1106.866" ></path>
                    </g>
                </g>
                <g transform="matrix(1 0 0 1 157 1120)">
                    <g transform="matrix(1 0 0 1 0 0)">
                        <path id="Forearm" fill="#BCCBDE" d="M411.99-788.991c2.175-4.814,2.175-11.569,0-20.266c0.932-13.821-2.252-25.856-9.55-36.106l-9.784,24.459
				l0.233,0.233h0.232c2.796,2.019,4.426,4.736,4.892,8.153v1.397l-0.466,5.125v0.233l-0.232,0.466v0.233l-0.233,0.466v0.233
				l-0.232,0.466c-1.242,6.988-3.417,11.958-6.522,14.908l-1.165,0.932l-5.124,0.233l-3.262-19.334h-0.466l-12.113-20.499
				c-0.932,4.659-0.621,8.463,0.932,11.414c-0.466,20.033,2.951,37.969,10.25,53.809c6.057,10.405,10.87,21.042,14.442,31.913
				l6.522,4.426l1.164-3.028l0.233-2.563v2.563l6.988-16.772l6.057,25.623l0.698-5.357c0.932-5.901,0.932-11.803,0-17.704
				C415.484-758.553,414.32-773.772,411.99-788.991 M400.344-749.391l1.397,15.84l-5.357-42.395L400.344-749.391 M207.468-816.245
				c1.554-2.951,1.941-6.755,1.165-11.414l-12.113,20.266l-0.232,0.233l-3.262,19.334l-5.124-0.233l-1.165-0.932
				c-3.261-2.951-5.513-7.92-6.755-14.908c-2.33-7.765-0.932-13.355,4.192-16.771l-10.017-24.459
				c-7.144,10.25-10.249,22.207-9.317,35.873c-2.174,8.696-2.174,15.452,0,20.266c-2.329,15.219-3.494,30.438-3.494,45.657
				c-1.087,5.901-1.087,11.802,0,17.704l0.699,6.29l6.289-26.556l8.386,19.8l5.824-3.494c3.571-11.181,8.463-22.129,14.675-32.845
				C204.518-778.275,207.935-796.212,207.468-816.245 M134.092-788.525c2.174-4.814,2.174-11.569,0-20.266
				c0.466-7.144-0.155-13.821-1.864-20.033c-1.553-5.746-4.038-11.026-7.454-15.84l-15.141,46.355
				c-0.932-7.765-4.348-17.937-10.25-30.516c-4.193-8.852-9.628-18.946-16.306-30.282c2.019,9.628,4.736,18.868,8.153,27.72
				l-0.466,2.562c-1.087,6.057-0.932,10.327,0.466,12.812c-0.466,20.033,2.951,37.969,10.25,53.81l0.233,0.233
				c6.057,10.404,11.026,21.275,14.908,32.612l8.153-6.057l-11.414,25.391l24.226-15.141v-0.233c1.087-5.901,1.087-11.725,0-17.471
				c0-13.045-0.854-26.012-2.563-38.901L134.092-788.525 M-70.198-816.012c1.553-2.795,1.941-6.522,1.165-11.181l-0.233-1.165
				l-0.233-0.466l-0.233-1.165l-0.466-1.397l8.153-27.72c-6.677,11.336-12.035,21.431-16.073,30.282
				c-6.057,12.579-9.473,22.751-10.25,30.516l-15.141-46.355c-3.572,4.814-6.134,10.094-7.687,15.84
				c-1.553,5.436-2.174,11.259-1.864,17.471v2.563c-2.174,8.696-2.174,15.452,0,20.266l-0.932,6.755
				c-1.708,12.89-2.484,25.856-2.329,38.901c-1.087,5.746-1.087,11.569,0,17.471l24.226,15.374l-11.647-25.391l8.386,6.29
				c3.572-11.181,8.542-22.129,14.908-32.845v-0.233C-73.148-778.042-69.732-795.979-70.198-816.012" ></path>
                    </g>
                </g>
                <g transform="matrix(1 0 0 1 357 1510)">
                    <g transform="matrix(1 0 0 1 0 0)">
                        <path id="Quads" fill="#BCCBDE" d="M-117.388-1134.732l-0.932-6.988l-12.346-16.539l-7.687,9.317l-8.386,7.221
				c-1.087,10.25-2.951,20.965-5.591,32.146l-6.988-4.659c-4.814,8.697-11.569,14.986-20.266,18.869l-6.29,11.414l0.233,0.232v2.097
				v4.426l0.233,1.397v1.863l0.466,5.824l0.233,1.397l2.795,19.8v0.466l3.494,18.636l2.563,13.045l0.233,0.466l3.028,13.743v0.233
				v0.466c-0.311,11.491,0.078,22.673,1.165,33.543v0.466c4.503,7.144,9.396,10.716,14.675,10.716l3.727-7.222l-1.863-28.419
				c5.125,4.349,10.638,3.417,16.539-2.795c-2.329,9.628-3.572,19.878-3.727,30.748c5.901-4.503,10.638-10.56,14.209-18.169
				c-1.864,13.044-0.233,21.431,4.892,25.157l14.442-94.807l0.233-4.893c0-11.491-1.165-25.778-3.494-42.86l-1.397-7.688
				l0.699-8.386l-0.699-7.221C-113.195-1126.501-114.593-1130.85-117.388-1134.732 M-261.579-1134.732
				c-2.795,3.882-4.193,8.231-4.193,13.045l-0.466,7.221l0.466,8.386l-1.165,7.688c-2.485,17.082-3.649,31.369-3.494,42.86v4.893
				l14.442,94.807c4.969-3.727,6.6-12.113,4.892-25.157c3.417,7.609,8.153,13.666,14.209,18.169
				c-0.311-10.87-1.63-21.12-3.96-30.748c5.901,6.212,11.414,7.144,16.539,2.795c-0.932,9.008-1.476,18.48-1.631,28.419l3.727,7.222
				c5.28,0,10.25-3.728,14.908-11.182c0.932-10.87,1.243-22.052,0.932-33.543l1.63-6.522l1.631-7.92v-0.233l0.233-1.165l1.165-6.056
				l2.096-10.482l2.33-12.813l0.233-1.397l0.466-2.563l3.494-30.282v-0.466v-1.164v-0.699v-1.863v-0.466l-5.59-9.784l-1.165,0.699
				v-1.165l0.233-1.164c-8.696-3.883-15.374-10.172-20.033-18.869l-7.221,4.659c-2.64-11.181-4.503-21.896-5.591-32.146
				l-8.153-7.221l-7.687-9.317c-3.572,3.882-7.609,9.396-12.113,16.539L-261.579-1134.732 M-205.44-1046.68l-0.233,0.232
				l0.233-0.466V-1046.68" ></path>
                    </g>
                </g>
                <g transform="matrix(1 0 0 1 380 2404)">
                    <g transform="matrix(1 0 0 1 0 0)">
                        <path id="Calves" fill="#BCCBDE" d="M130.522-1832.828L124-1844.01l-2.795,7.688c-1.554,4.97-2.718,10.017-3.494,15.141l-0.932,7.222
				l-1.398-5.125l-3.028-8.618l-3.494-6.988c-1.708-2.796-3.882-4.814-6.521-6.057l-6.522,40.997l-3.262,19.335l-1.397,15.84
				c-0.155,6.678,0.621,13.277,2.329,19.8l2.33,14.442l1.164,17.471l0.233,8.386l0.698,8.852l0.467,8.852l1.63,17.238l2.563,23.061
				l1.165-8.152l1.863-16.539l0.466-16.306c0.155-8.386-0.233-16.772-1.165-25.158l-1.164-19.566l3.727-5.591l6.756-12.346
				l3.261-7.454l2.329,7.221l5.591,13.045l3.494,5.823l-3.494,10.716l-5.823,21.197l-4.426,21.197
				c-1.863,10.716-3.184,21.509-3.96,32.379h6.755l3.494-17.703l0.932-9.317l16.073-72.678l-7.92-78.967V-1832.828 M34.783-1799.751
				l-6.289-40.997c-2.64,2.95-5.047,6.057-7.222,9.317c-1.708,2.329-3.027,4.814-3.96,7.454l-3.261,10.017l-2.097-14.908
				l-2.097-7.222l-3.028-7.92l-6.521,11.182v8.153l-3.494,8.852l-2.796,9.084c-1.397,6.212-2.407,12.502-3.028,18.869
				c-0.621,6.832-0.854,13.665-0.698,20.498l0.466,10.716l1.631,10.948l16.072,72.678l0.699,9.55l3.494,17.471h6.988l-0.932-10.715
				l-1.165-10.948l-3.728-21.664l-5.124-21.197l-3.028-10.249l-3.728-10.716l6.756-12.112l2.563-6.522l2.096-7.454l6.522,14.209
				l3.494,6.057l3.728,5.125l-1.165,27.952l-0.466,8.387L25-1679.553l0.932,16.771l0.932,8.386l1.165,7.92l3.494-31.446
				l1.631-17.704l0.932-17.237l0.232-8.852l0.466-8.853l0.932-8.618l2.796-11.88l1.165-6.29l-0.233-14.908l-2.795-17.471
				L34.783-1799.751 M-155.296-1817.688l-6.29,13.045c-1.397,3.883-2.407,7.92-3.028,12.113l-1.165,13.277l-0.233,14.21
				l-0.699,16.538l-0.466,9.318v9.317l0.466,9.317l1.165,9.317l1.863,9.318l2.33,9.317l2.795,8.852l19.101-61.496l-7.92-79.2
				L-155.296-1817.688 M-175.563-1792.995l-1.397-4.426l-3.494-6.988l-4.193-6.057l1.863,11.414l-0.699,9.551
				c-1.087,5.746-1.941,11.569-2.563,17.471c-0.466,4.813-0.466,9.706,0,14.675c0.311,4.193,1.087,8.309,2.33,12.346l1.165,5.824
				l1.165,11.181l0.233,11.182l0.699,11.181l0.466,10.716l1.864-3.96l1.63-4.426l2.33-12.347l1.397-15.606v-20.033l-2.097-37.271
				L-175.563-1792.995 M-277.591-1824.442l-3.494,8.852l-3.028,9.085l-1.864,9.317l-1.397,9.551l-0.699,10.249l0.233,10.482
				l0.932,10.716l1.63,10.715l4.892,19.334l13.976,42.396l3.028-8.852l2.563-9.317l1.63-9.318l1.165-9.317l0.233-9.317v-9.317
				l-0.699-9.318l-0.699-9.317l0.233-7.221l0.233-7.222v-6.755l-0.466-7.222l-0.699-6.289l-0.932-6.289l-1.63-6.057l-2.563-5.591
				l-4.659-7.222L-277.591-1824.442 M-242.184-1799.052c0.155-3.883,0.776-7.688,1.864-11.414
				c-4.504,5.125-7.454,10.948-8.852,17.471l-1.863,14.442c-0.932,12.579-1.32,25.235-1.165,37.969l0.466,17.937l0.932,7.454
				l2.795,11.881l3.261,8.618l1.864-47.753l2.33-5.357l2.096-11.88l-0.233-14.21l-2.563-16.072L-242.184-1799.052" ></path>
                    </g>
                </g>
                <g transform="matrix(1 0 0 1 316 692)">
                    <g transform="matrix(1 0 0 1 0 0)">
                        <path id="Chest" fill="#BCCBDE" d="M-139.049-521.254c-6.833,17.703-6.833,37.193,0,58.468c8.386,4.97,17.704,4.97,27.953,0l31.68-14.675
				c7.144-7.299,14.365-9.628,21.664-6.988c-5.28-15.53-15.685-30.36-31.214-44.492
				C-107.913-532.823-124.607-530.261-139.049-521.254 M-157.685-521.254c-14.442-9.007-31.137-11.569-50.083-7.688
				c-15.685,14.132-26.167,28.962-31.447,44.492c7.299-2.64,14.598-0.311,21.896,6.988l31.68,14.675
				c10.25,4.97,19.567,4.97,27.953,0C-151.007-484.061-151.007-503.551-157.685-521.254" ></path>
                    </g>
                </g>
                <g transform="matrix(1 0 0 1 1738 1233)">
                    <g transform="matrix(1 0 0 1 0 0)">
                        <path id="Lower_Back" fill="#BCCBDE" d="M-1254.965-908.047l-5.357-9.318l-5.357-8.153c-6.522-10.715-12.657-17.238-18.402-19.567l-2.097-0.699
				v0.233h-13.511l-1.165,0.233l-7.92,5.125c-4.503,4.193-9.162,10.793-13.977,19.8l-1.863,3.261l-5.357,9.551l0.466,0.466
				l6.057,6.057l13.277,12.812l17.005,15.374l31.214-28.186l4.426-4.426l0.699-0.466L-1254.965-908.047" ></path>
                    </g>
                </g>
                <g transform="matrix(1 0 0 1 391 350)">
                    <g transform="matrix(1 0 0 1 0 0)">
                        <path id="Trapezious" fill="#BCCBDE" d="M82.718-236.558l-8.619-31.913l-20.499,3.96l-19.334-3.96l-7.92,31.913l-45.19,37.736
				c13.666-0.932,24.381,5.436,32.146,19.102l2.097,5.823c4.659,13.045,7.144,26.089,7.454,39.134l0.466,0.699l-0.466,0.466
				l-0.698,16.539h0.466l-0.233,0.233l24.459,51.247l0.466,3.028h13.511v-0.233c6.367-18.946,14.83-37.038,25.391-54.275
				c-0.776-5.746-1.087-11.415-0.932-17.005c0.311-13.511,2.873-26.943,7.687-40.299H93.2l1.863-5.357
				c7.765-13.666,18.558-20.111,32.379-19.334L82.718-236.558 M42.885-220.252l11.647-27.953l11.646,27.953l-11.414,13.744
				C49.64-211.322,45.68-215.903,42.885-220.252 M-296.744-198.355l36.106,1.165c7.144-9.007,10.25-21.974,9.318-38.901
				L-296.744-198.355 M-185.397-197.19l35.174-1.165l-44.492-37.503C-195.647-219.087-192.541-206.198-185.397-197.19" ></path>
                    </g>
                </g>
                <g transform="matrix(1 0 0 1 399 921)">
                    <g transform="matrix(1 0 0 1 0 0)">
                        <path id="Back" fill="#BCCBDE" d="M112.221-634.482l4.193-39.6l-1.397-9.783c-15.529,4.193-27.798,2.795-36.805-4.193
				c-10.561,17.237-19.023,35.329-25.391,54.275h0.232l1.864,0.699c5.745,2.33,11.88,8.852,18.402,19.567l5.357,8.153l5.357,9.318
				l2.563-2.563l2.795-2.33c5.125-4.659,9.861-8.075,14.21-10.25h0.232l1.631-0.699l0.932-0.466l1.863-0.699
				C108.727-620.661,110.047-627.805,112.221-634.482 M38.845-636.579l-24.459-51.247l-5.357,3.261
				c-8.386,3.727-18.713,3.96-30.981,0.699l-1.863,9.783l4.193,39.6c2.174,6.678,3.571,13.821,4.192,21.431
				c6.678,2.33,14.831,8.153,24.459,17.471l5.357-9.551l1.863-3.261c4.814-9.007,9.474-15.607,13.977-19.8
				c2.796-2.64,5.436-4.348,7.92-5.125l1.165-0.233L38.845-636.579 M-165.445-634.25l3.96-39.6
				c2.174-10.249,1.864-21.12-0.932-32.611l-16.539,12.579C-170.569-679.129-166.066-659.252-165.445-634.25 M-301.482-673.85
				l4.193,39.833c0.466-25.158,4.892-45.113,13.278-59.866l-16.306-12.579C-303.268-694.969-303.656-684.099-301.482-673.85" ></path>
                    </g>
                </g>
                <g transform="matrix(1 0 0 1 586 427)">
                    <g transform="matrix(1 0 0 1 0 0)">
                        <path id="Neck" fill="#BCCBDE" d="M-390.181-313.092v-0.233c-0.621-5.125-0.776-9.861-0.466-14.209l-8.153,8.386l-6.522,4.659l0.699,0.932
				c0,8.541-1.009,17.005-3.028,25.391l-8.386,25.391c4.659-8.23,10.948-10.715,18.868-7.454c3.417-8.542,3.417-17.083,0-25.624
				l7.454-17.005L-390.181-313.092 M-446.32-313.092l7.221,17.238c-3.417,8.541-3.417,17.082,0,25.624
				c8.075-3.261,14.442-0.776,19.101,7.454c-7.609-16.927-11.414-33.854-11.414-50.781c-4.814-2.64-9.628-6.678-14.442-12.113
				L-446.32-313.092" ></path>
                    </g>
                </g>
                <g transform="matrix(1 0 0 1 215 884)">
                    <g transform="matrix(1 0 0 1 0 0)">
                        <path id="Bicep" fill="#BCCBDE" d="M63.28-666.666l-0.233-7.92c-3.882,12.579-7.687,18.791-11.414,18.635
				c-2.484-9.317-5.357-16.306-8.619-20.964c-7.299-2.64-14.52-0.311-21.664,6.988c2.795,11.492,3.106,22.363,0.932,32.612
				l2.563,13.744L41.15-593.29c5.901,12.579,9.318,22.75,10.25,30.516l15.141-46.355l-0.233-0.233l-3.727-19.101l1.398-13.511
				c0.311-7.609-0.155-15.529-1.398-23.76L63.28-666.666 M-158.713-665.734c-2.019,13.045-2.019,25.468,0,37.271
				c-1.553,2.951-2.563,9.24-3.028,18.868v0.233v0.233l15.141,46.355c0.776-7.765,4.193-17.937,10.25-30.516
				c4.038-8.852,9.396-18.946,16.073-30.282l2.563-13.744c-2.174-10.249-1.786-21.12,1.165-32.612
				c-7.299-7.299-14.598-9.628-21.896-6.988c-3.261,4.659-6.056,11.647-8.386,20.964c-4.038,0.155-7.92-6.134-11.647-18.868
				L-158.713-665.734" ></path>
                    </g>
                </g>
                <g transform="matrix(1 0 0 1 1551 1652)">
                    <g transform="matrix(1 0 0 1 0 0)">
                        <path id="Hamstrings" fill="#BCCBDE" d="M-1028.598-1257.63l-6.988-9.551c-11.803,4.503-12.501,22.285-2.097,53.343l-7.92,18.868
				c1.087-8.386-1.319-16.693-7.221-24.925h-0.233l-7.454-1.63l-5.591-0.699l-2.795-0.232l-21.431-0.699h-0.466l-0.232-0.233
				c-3.572-0.932-7.144-2.174-10.716-3.727c-0.155,8.541,1.165,21.12,3.96,37.736l9.317,46.122
				c-0.932,25.779,1.709,49.85,7.92,72.212l3.96,14.442h3.262l4.892-33.077c5.125-2.485,7.765-6.678,7.92-12.579
				c4.504,6.057,9.085,9.162,13.744,9.317l6.521,11.182v-7.92l3.262-23.993v-0.466l12.579-79.899v-4.658
				c0.155-13.2-1.398-30.05-4.659-50.549L-1028.598-1257.63 M-1120.144-1223.155l-13.511,1.863l-10.948-0.232l-13.045,1.397
				c-6.056,8.386-8.541,16.771-7.454,25.157l-7.92-18.868c10.405-31.059,9.629-48.84-2.329-53.343l-6.755,9.551l0.232,8.385
				c-3.261,20.499-4.814,37.349-4.659,50.549l0.233,4.658l15.84,104.358v7.92l6.522-11.182c4.504-0.155,9.085-3.261,13.743-9.317
				c0.155,5.901,2.796,10.094,7.92,12.579l4.659,33.077h3.494l3.96-14.442c6.057-22.362,8.696-46.433,7.92-72.212l1.397-6.522
				l7.921-39.6c2.795-16.616,4.037-29.195,3.727-37.736L-1120.144-1223.155" ></path>
                    </g>
                </g>
                <g transform="matrix(1 0 0 1 0 0)">
                    <path fill="none" stroke="#999999" stroke-width="6" stroke-linecap="round" stroke-linejoin="round"
                        d="M476.047,67.553
			l2.796-6.755v-0.233l0.466-1.397l0.932-2.795c4.503-17.704-1.941-30.593-19.334-38.668c-4.659-2.019-9.24-3.106-13.744-3.261
			l-1.164-0.233H444.6l-1.164,0.233c-4.504,0.155-9.008,1.242-13.511,3.261c-17.548,8.075-23.993,20.964-19.334,38.668l0.698,2.795
			l0.466,1.397l0.233,0.233l2.563,6.755 M479.309,59.167l0.698,4.892l-4.192,22.596c3.882,0.155,5.979-2.873,6.289-9.085
			c2.95-5.59,4.736-10.094,5.357-13.511c0.621-5.28-1.786-7.842-7.221-7.687 M445.998,14.209h0.698l0.466,0.233 M444.6,14.209
			h-0.466l-0.698,0.233 M411.289,59.167l-0.466,4.892l3.96,22.596c2.951,7.144,3.805,16.073,2.563,26.788l7.92-31.913l19.334,3.96
			l20.499-3.96 M473.718,113.442c-1.553-10.715-0.854-19.645,2.097-26.788 M414.783,86.654c-3.882,0.155-5.9-2.873-6.057-9.085
			c-3.105-5.59-4.892-10.094-5.357-13.511c-0.776-5.28,1.631-7.842,7.222-7.687 M433.885,129.748l11.647-27.953l11.646,27.953
			l-11.414,13.744C440.64,138.678,436.68,134.097,433.885,129.748 M413.852,215.238c-0.311-13.045-2.795-26.089-7.454-39.134
			c-9.317-1.087-15.84,3.184-19.567,12.812l-3.261,0.932C394.906,194.195,405,202.659,413.852,215.238l0.466,0.699l-0.466,0.466
			l-0.698,16.539h0.466l-0.233,0.233l24.925,54.275h13.511v-0.233c6.367-18.946,14.83-37.038,25.391-54.275
			c-0.776-5.746-1.087-11.415-0.932-17.005c0.311-13.511,2.873-26.943,7.687-40.299h0.233l1.863-5.357
			c7.765-13.666,18.558-20.111,32.379-19.334l-44.725-37.503 M413.852,215.238v1.165l-11.414,14.442l10.716,2.097l0.232,0.233
			c-9.007,6.677-21.12,7.998-36.339,3.96l-1.863,9.783l4.193,39.6c2.174,6.678,3.571,13.821,4.192,21.431
			c6.678,2.33,14.831,8.153,24.459,17.471l7.221-12.812c8.387-15.374,16.073-23.76,23.062-25.158 M406.397,176.104l-2.097-5.823
			c-7.765-13.666-18.479-20.033-32.146-19.102c-4.659-0.466-8.153,1.553-10.482,6.057c-18.324,1.087-27.409,21.431-27.254,61.03
			v0.233c5.901-8.542,14.209-14.908,24.925-19.102l17.005-2.795h0.698c1.553-3.261,3.728-5.513,6.522-6.755 M484.2,175.638
			c9.783-0.776,17.471,3.96,23.061,14.209c2.641,0.311,5.048,2.562,7.222,6.755l17.005,2.329l0.698,0.233
			c9.474,3.261,17.549,9.396,24.227,18.402c-0.155-38.979-9.24-59.089-27.255-60.332c-2.484-4.503-5.979-6.522-10.481-6.057
			l-0.233-0.233 M514.482,196.603c4.349,3.261,6.057,8.541,5.125,15.84c-4.038,8.23-5.901,16.461-5.591,24.692l1.397,9.783
			c2.174,14.753,5.746,28.497,10.715,41.231l-0.932,4.193l12.113,20.499l-6.522-54.275l6.988-12.113
			c2.64-14.908,0.621-30.593-6.057-47.054l-0.232-0.466 M477.212,232.941l11.181-2.097l-11.88-14.908
			c8.852-12.89,19.102-21.586,30.748-26.089 M537.776,246.452l21.664,28.186c-0.466-9.784-1.476-16.073-3.028-18.868
			c1.863-11.802,1.863-24.304,0-37.504v-0.699 M451.821,287.216h0.232l1.864,0.699c5.745,2.329,11.88,8.852,18.402,19.567
			l10.715,17.471l2.563-2.563l2.795-2.33c5.125-4.659,9.861-8.075,14.21-10.25h0.232l4.426-1.863
			c0.466-7.609,1.786-14.753,3.96-21.431l4.193-39.6 M514.017,237.134c-15.529,4.193-27.798,2.795-36.805-4.193 M485.598,322.391
			l-2.563,2.795l-1.863,1.863l-0.699,0.466l-4.426,4.426l5.357,7.221c12.269,0.777,21.741,3.572,28.419,8.386
			c0-3.106-0.621-5.047-1.863-5.824c2.329-5.28,2.718-13.588,1.165-24.925l-1.864-8.852 M483.035,324.953v0.233 M481.172,327.049
			l1.863-2.096 M549.656,299.097l-5.591,13.743h-6.289l3.262,19.334l5.124-0.233l1.165-0.932c3.105-2.951,5.28-7.92,6.522-14.908
			l0.232-0.466v-0.233l0.233-0.466v-0.233l0.232-0.699l0.466-5.125v-1.397C554.393,303.911,552.607,301.115,549.656,299.097
			l0.233,0.233h0.232c2.796,2.019,4.426,4.736,4.892,8.153 M554.548,314.005l-0.232,0.932 M525.197,292.341
			c-0.932,4.659-0.621,8.463,0.932,11.414c-0.466,20.033,2.951,37.969,10.25,53.809c6.057,10.405,10.87,21.042,14.442,31.913
			c2.329-20.499-0.932-39.6-9.783-57.303 M537.776,312.84h-0.466 M550.821,389.478l0.698,0.466l5.824,3.96l1.164-2.562v-0.466
			l0.233-1.165v-1.397v-1.864l-6.755-51.247l-4.659-4.193 M553.85,316.101c9.007,33.233,12.967,52.567,11.88,58.002l6.057,25.623
			l0.698-5.357c0.932-5.901,0.932-11.803,0-17.704c0-15.219-1.164-30.438-3.494-45.657c2.175-4.814,2.175-11.569,0-20.266
			c0.932-13.821-2.252-25.856-9.55-36.106l-9.784,24.459 M451.821,287.216l2.097,0.699 M383.569,307.948l-2.097,8.852
			c-1.553,11.337-1.087,19.645,1.397,24.925c-1.397,0.776-2.096,2.64-2.096,5.591c6.678-4.659,16.15-7.376,28.419-8.153l5.357-7.221
			l-6.057-6.057l-0.699-0.466h0.233l0.466,0.466 M380.774,347.315v0.233c-3.417,6.056-5.901,15.219-7.454,27.487
			c-2.796,3.882-4.271,8.231-4.426,13.045c-0.311,2.329-0.389,4.736-0.233,7.221l6.755-9.551
			c15.375-19.412,31.681-27.875,48.918-25.391c-1.708-7.144-6.755-14.209-15.141-21.198 M380.309,571.172l6.521-11.182
			c4.504-0.155,9.085-3.261,13.744-9.317c5.125-19.567,6.522-40.842,4.192-63.826l2.796-23.294
			c0.621-11.025,0.155-21.741-1.397-32.146l-13.045,1.397c-6.057,8.386-8.541,16.771-7.454,25.157l-0.233,5.591
			c-1.397,34.631-4.348,59.788-8.852,75.474 M388.461,740.52l4.193,17.471h6.988c-1.709-29.351-7.609-57.847-17.704-85.489
			c5.746-7.144,9.551-15.84,11.414-26.089l0.699-56.372c0.155-10.094-2.252-20.11-7.222-30.05 M400.574,550.673
			c0.155,5.901,2.795,10.094,7.92,12.579l3.261,23.76c0.777-27.643,5.979-63.36,15.607-107.153l4.659-16.306
			c3.571-15.063,3.105-26.322-1.398-33.776l-13.51,1.863l-10.948-0.232 M476.28,604.482l2.795-17.471
			c-0.776-27.643-5.901-63.36-15.374-107.153c-2.174-5.9-3.805-11.336-4.892-16.306c-3.572-15.063-3.028-26.322,1.631-33.776
			l-11.415-3.96 M480.007,734.464l2.563,23.061c4.193-22.052,4.581-44.104,1.165-66.155v-19.566
			c5.435-6.522,10.017-14.986,13.743-25.391l-0.698-56.372c-3.572-15.063-8.387-23.993-14.442-26.788l-3.262,23.76 M449.025,425.816
			c-2.95-22.207,2.873-44.026,17.471-65.457c1.554-7.144,6.522-14.209,14.908-21.198 M441.571,425.816l-10.948,3.96 M424.334,360.36
			c14.442,21.431,20.188,43.25,17.237,65.457 M558.741,389.71l-0.233,1.631l7.222-17.238 M558.508,391.341l0.233-0.466v-2.563
			 M551.52,389.943l-8.386,9.551c-2.019,2.329-3.727,6.134-5.124,11.414c-0.621,3.105-0.621,5.357,0,6.755
			c-4.659,8.076-6.135,14.909-4.426,20.499c1.087,2.02,2.95,2.02,5.59,0c2.951-3.571,4.892-9.007,5.824-16.306
			c3.261,0.155,5.823,2.174,7.687,6.057c-0.155,3.416,0.466,6.367,1.863,8.852c-3.416,2.484-4.736,5.668-3.96,9.551l-11.414,3.96
			c-2.795,3.727-3.571,5.901-2.329,6.522l2.329-0.233l-3.028,1.165c-2.019,1.553-1.94,3.494,0.233,5.823h3.96
			c-2.484,1.863-2.407,3.417,0.233,4.659c4.348-1.087,8.386-2.64,12.112-4.659l10.716-9.085l6.289-20.032
			c2.329-2.02,2.329-8.23,0-18.636l2.097-16.073 M466.496,360.36c17.083-2.484,33.311,5.979,48.686,25.391l6.987,9.551l-0.466-7.221
			c-0.155-4.814-1.553-9.163-4.192-13.045c-1.708-12.268-4.271-21.431-7.688-27.487 M514.249,538.793
			c-4.503-15.685-7.454-40.765-8.852-75.24l-0.232-5.591c1.087-8.386-1.32-16.693-7.222-24.924h-0.232l-13.045-2.33
			c-1.553,10.716-2.019,21.664-1.397,32.845c0.466,7.609,1.397,15.374,2.795,23.294c-2.329,22.984-0.932,44.259,4.193,63.826
			c4.503,6.057,9.084,9.162,13.743,9.317l6.522,11.182 M526.362,458.895v-4.659c0.155-13.2-1.397-30.05-4.659-50.548l0.466-8.386
			 M515.182,385.75c-11.803,4.503-12.502,22.285-2.097,53.343l-7.92,18.868 M497.943,433.038l7.454,2.329
			c2.796,1.087,5.357,2.329,7.688,3.727 M414.551,331.941l30.282,28.186l31.214-28.186 M460.44,429.776l24.226,0.932
			 M514.482,196.603c-3.883,8.075-12.579,19.489-26.09,34.242c10.716-0.311,21.12-6.445,31.215-18.402 M86.569,459.36v-4.893
			c-0.155-11.491,1.009-25.778,3.494-42.86l1.165-7.688l-0.466-8.386l0.466-7.221c0-4.814,1.398-9.163,4.193-13.045l1.165-6.988
			c1.553-8.696,3.727-15.529,6.522-20.499c0-2.951,0.699-4.814,2.096-5.591l-1.863-6.056c-0.777-4.97-0.621-11.259,0.466-18.868
			l2.096-9.085l-3.028-17.005l-1.165-4.193l-4.193-39.833l-2.563,13.744l-8.153,27.72l1.165,4.193
			c0.777,4.659,0.389,8.386-1.165,11.181c0.466,20.033-2.951,37.969-10.25,53.81v0.233c-6.367,10.715-11.336,21.664-14.908,32.845
			l8.386,9.084c1.863,2.174,3.494,5.979,4.892,11.414c0.621,2.95,0.621,5.202,0,6.756c4.659,7.92,6.134,14.753,4.426,20.498
			c-1.087,2.02-2.951,2.02-5.59,0c-2.951-3.571-4.892-9.084-5.824-16.538c-3.261,0.311-5.746,2.329-7.454,6.056
			c0,3.572-0.699,6.601-2.097,9.085c3.261,2.484,4.582,5.668,3.96,9.551l11.414,3.96c2.795,3.727,3.649,5.823,2.562,6.289h-2.562
			l2.795,1.165c2.019,1.397,2.097,3.184,0.233,5.357l-0.233,0.233h-3.96c2.64,1.863,2.64,3.494,0,4.892
			c-4.814-1.242-9.084-2.95-12.812-5.125c-3.882-2.329-7.299-5.202-10.25-8.618l-6.29-20.267c-2.329-1.863-2.329-7.997,0-18.402
			v-0.232l-2.562-21.431c-1.087-5.901-1.087-11.725,0-17.471c-0.155-13.045,0.621-26.012,2.329-38.901l0.932-6.755
			c-2.174-4.814-2.174-11.569,0-20.266c-0.466-7.144,0.156-13.821,1.864-20.033c1.553-5.746,4.115-11.026,7.687-15.84v-0.466
			c0.466-9.628,1.475-15.917,3.028-18.868c-2.019-11.802-2.019-24.226,0-37.271l0.233-9.085
			c1.242-33.699,10.25-51.092,27.021-52.179c2.485-4.503,5.979-6.445,10.482-5.824l45.424-37.736l0.466-12.579v-0.699
			c-0.466-5.125-1.476-9.706-3.028-13.744c-4.038,0.155-6.134-2.873-6.29-9.085c-3.106-5.435-4.814-9.861-5.125-13.277
			c-0.776-5.28,1.553-7.92,6.988-7.92c-4.504-17.548,1.941-30.438,19.334-38.668c4.659-1.864,9.24-2.951,13.744-3.261h3.727
			c4.348,0.311,8.852,1.397,13.51,3.261c17.393,8.23,23.838,21.12,19.334,38.668c5.59,0,7.998,2.64,7.221,7.92
			c-0.466,3.417-2.252,7.842-5.358,13.277c-0.311,6.212-2.329,9.24-6.056,9.085c-1.553,3.727-2.485,7.92-2.795,12.579
			c-0.311,4.348-0.155,9.085,0.466,14.209v0.233l0.466,0.233l44.492,37.503l0.699-0.233c4.193-0.155,7.454,1.864,9.784,6.057h0.233
			c16.617,1.242,25.546,18.635,26.788,52.179v0.233l0.233,7.92c1.553,13.666,1.32,26.4-0.699,38.203l3.727,19.101l0.233,0.233
			c3.417,4.814,5.901,10.094,7.454,15.84c1.708,6.212,2.33,12.89,1.864,20.033c2.174,8.696,2.174,15.452,0,20.266l0.932,6.755
			c1.708,12.89,2.563,25.856,2.563,38.901c1.087,5.746,1.087,11.569,0,17.471v0.233l-2.563,21.43
			c2.174,10.405,2.174,16.539,0,18.402l-6.29,20.267c-2.95,3.416-6.367,6.289-10.249,8.618l-12.812,5.125
			c-2.64-1.397-2.64-3.028,0-4.892h-4.193l-0.233-0.233c-2.019-2.174-1.941-3.96,0.233-5.357l3.028-1.165h-2.563
			c-1.087-0.466-0.233-2.563,2.563-6.289l11.414-3.96c-0.776-3.883,0.466-7.066,3.727-9.551c-1.397-2.484-2.019-5.513-1.864-9.085
			c-1.863-3.727-4.426-5.745-7.687-6.056c-0.932,7.454-2.795,12.967-5.59,16.538c-2.795,2.02-4.737,2.02-5.824,0
			c-1.708-5.745-0.155-12.578,4.659-20.498c-0.777-1.554-0.777-3.806,0-6.756c1.242-5.436,2.873-9.24,4.892-11.414l8.386-9.317
			c-3.882-11.337-8.852-22.207-14.908-32.612l-0.233-0.233c-7.299-15.84-10.715-33.777-10.25-53.81
			c-1.397-2.485-1.553-6.755-0.466-12.812l0.466-2.562c-3.417-8.852-6.134-18.092-8.153-27.72l-2.563-13.744l-3.96,39.6v0.233
			l-1.397,4.193c-1.398,5.436-2.33,11.104-2.795,17.005l2.097,9.085c0.932,7.609,1.009,13.821,0.233,18.635v0.233v0.233
			l-1.631,5.823c1.398,0.777,2.097,2.64,2.097,5.591c2.64,4.969,4.814,11.802,6.522,20.499l0.932,6.988
			c2.795,3.882,4.193,8.231,4.193,13.045l0.699,7.221l-0.699,8.386l1.397,7.688c2.33,17.082,3.494,31.369,3.494,42.86l-0.233,4.893
			 M200.012,709.306v-0.232 M198.148,664.814l-0.233-0.233 M185.569,544.15v-0.466 M184.405,509.908v-0.466 M181.376,495.699
			l-0.233-0.466 M198.148,86.887l3.96-22.362l-0.466-4.892l-0.466,1.398h-0.233l-2.562,6.755 M201.643,59.633l0.699-3.028
			 M236.583,214.539c7.144-7.299,14.365-9.628,21.664-6.988c-5.28-15.53-15.685-30.36-31.214-44.492
			c-18.946-3.882-35.64-1.32-50.082,7.688c-6.833,17.703-6.833,37.193,0,58.468c8.386,4.97,17.704,4.97,27.953,0L236.583,214.539
			c2.795,11.492,3.106,22.362,0.932,32.611 M236.583,214.539l-16.539,12.579c8.386,14.753,12.889,34.63,13.51,59.633
			 M240.078,260.894l16.306,30.282c5.901,12.579,9.318,22.751,10.25,30.516v-18.635l3.028-11.88
			c1.553-7.92,2.174-16.15,1.864-24.691c-0.466-15.219-2.019-27.875-4.659-37.97c-2.484-9.317-5.357-16.306-8.619-20.964
			 M278.28,209.88c-3.882,12.579-7.687,18.791-11.414,18.635 M227.033,163.059c4.659-5.28,12.734-7.144,24.226-5.59
			 M196.285,114.141c-0.932,16.772,2.174,29.661,9.318,38.668l35.174-1.165 M371.456,212.442
			c9.939,11.958,20.267,18.092,30.981,18.402c-13.511-14.598-22.129-25.934-25.856-34.009l-0.232-0.233
			C372,200.019,370.369,205.299,371.456,212.442c3.883,8.23,5.746,16.461,5.591,24.692 M132.692,56.604l0.932,3.028
			c-0.621,1.087-0.854,2.718-0.699,4.892l4.193,22.362 M140.146,101.33c4.814,5.435,9.628,9.473,14.442,12.113
			c8.696,4.503,17.393,4.193,26.089-0.932l6.522-4.659l8.153-8.386 M56.753,209.647c3.727,12.734,7.609,19.023,11.647,18.868
			c2.33-9.317,5.125-16.306,8.386-20.964c5.28-15.53,15.763-30.36,31.447-44.492c-4.814-5.28-12.967-7.144-24.459-5.59
			 M180.678,112.511c0.466,17.548-3.106,34.786-10.715,51.713c4.659-8.23,10.948-10.715,18.868-7.454
			c3.417-8.542,3.417-17.083,0-25.624l7.454-17.005 M139.68,113.908l7.221,17.238c-3.417,8.541-3.417,17.082,0,25.624
			c8.075-3.261,14.442-0.776,19.101,7.454c-7.609-16.927-11.414-33.854-11.414-50.781 M98.682,214.539l16.306,12.579l16.771,12.346
			c-2.795,4.97-2.795,12.346,0,22.129c11.958-4.038,23.916-5.668,35.873-4.892v-20.499l-9.317-6.988
			c-8.386,4.97-17.704,4.97-27.953,0L98.682,214.539c-7.299-7.299-14.598-9.628-21.896-6.988 M108.233,163.059
			c18.946-3.882,35.64-1.32,50.083,7.688c6.678,17.703,6.678,37.193,0,58.468 M139.68,113.908
			c0.932,16.927-2.174,29.894-9.318,38.901l-36.106-1.165 M131.76,261.593l-0.466,0.932c-2.64,6.677-2.251,16.228,1.165,28.651
			l1.165,3.727l12.346-3.727c7.144-1.708,14.365-2.562,21.664-2.562v-31.913c11.958-0.776,23.916,0.854,35.873,4.892h0.233
			c2.64-9.783,2.563-17.16-0.233-22.129l16.539-12.346 M103.341,336.134l11.414,9.783c12.579,12.424,19.567,20.732,20.965,24.925
			c0-2.485,1.242-6.911,3.727-13.278l-0.233-0.233c-1.863-10.715-3.028-22.207-3.494-34.475c-3.572-9.007-4.271-18.325-2.097-27.953
			 M135.72,322.856c10.56-4.814,21.197-7.454,31.913-7.92v-26.322l21.664,2.562l12.346,3.727v-0.233l0.932-3.494
			c3.417-12.423,3.805-21.974,1.165-28.651l-0.233-0.932 M68.4,228.515c-2.795,10.094-4.348,22.75-4.659,37.97
			c-0.311,8.541,0.311,16.771,1.863,24.691l3.028,11.88v18.635c0.776-7.765,4.193-17.937,10.25-30.516
			c4.038-8.852,9.396-18.946,16.073-30.282 M53.492,275.336l15.141,46.355l-15.374,62.894l8.386,6.29 M43.009,338.23l7.92,15.84
			V376.2l2.33,8.386l11.647,25.391L40.68,394.603 M184.172,393.903l0.932-0.699l0.233-0.466L184.172,393.903l-11.181,7.92h-5.358
			h-5.357l-12.113-6.988c-4.814-11.181-8.386-23.605-10.715-37.271 M153.889,495.699l-4.426-26.556l-0.932-5.357l-0.233-0.233
			l-4.659-16.771l-3.028-10.716c-4.348-12.423-7.842-24.303-10.482-35.64c-2.64-11.181-4.503-21.896-5.591-32.146l-8.153-7.221
			l-0.466,2.097c-1.863,19.256,4.271,44.958,18.402,77.104c2.64,6.057,5.28,13.821,7.92,23.294l1.398,5.357
			c2.951,11.182,5.28,24.925,6.988,41.231 M114.755,345.917c-1.864,1.243-3.882,3.184-6.057,5.824l7.687,9.317 M130.129,400.426
			l7.221-4.659c4.659,8.697,11.336,14.986,20.033,18.869l6.522,11.414 M115.92,363.155c-1.242,6.212-4.271,13.666-9.084,22.362
			c-5.436,24.07-6.445,50.082-3.028,78.035c1.242,10.405,3.106,21.043,5.59,31.913c2.795,6.678,5.047,13.666,6.755,20.965
			c5.901,6.212,11.414,7.144,16.539,2.795c2.019-18.169,5.668-34.94,10.948-50.315 M177.417,414.636
			c-2.019,14.598,0.078,30.903,6.29,48.917l1.863,5.591l5.824-22.362C184.25,438.24,179.591,427.524,177.417,414.636
			c8.696-3.883,15.452-10.172,20.266-18.869l6.988,4.659c2.64-11.181,4.504-21.896,5.591-32.146l8.386-7.221l7.687-9.317
			l-6.289-5.824c-12.579,12.424-19.567,20.732-20.965,24.925c0-2.485-1.165-6.755-3.494-12.812
			c-2.33,12.889-5.746,24.458-10.25,34.708 M143.64,446.781c6.988-8.541,11.492-18.48,13.51-29.816V415.8l0.233-1.164
			 M171.127,426.282v-0.232l6.29-11.414 M108.699,351.741c-3.572,3.882-7.609,9.396-12.113,16.539 M106.835,385.518l-16.772,26.09
			 M195.586,358.031l0.233-0.466c1.863-10.56,3.028-22.129,3.494-34.708c-10.56-4.814-21.12-7.454-31.68-7.92v86.887
			 M375.184,246.917c-2.174,14.753-5.746,28.497-10.716,41.231l1.165,4.193c0.776,4.659,0.389,8.463-1.165,11.414
			c0.467,20.033-2.95,37.969-10.249,53.809c-6.212,10.715-11.104,21.664-14.675,32.845l8.152,9.085
			c2.019,2.329,3.649,6.134,4.892,11.414c0.621,3.105,0.621,5.357,0,6.755c4.659,8.076,6.212,14.909,4.659,20.499
			c-1.242,2.02-3.184,2.02-5.823,0c-2.951-3.571-4.814-9.007-5.591-16.306c-3.262,0.155-5.823,2.174-7.688,6.057
			c0,3.416-0.621,6.367-1.863,8.852c3.262,2.484,4.504,5.668,3.728,9.551l11.414,3.96c2.795,3.727,3.649,5.901,2.563,6.522
			l-2.563-0.233l3.028,1.165c2.019,1.553,1.94,3.494-0.233,5.823h-3.727c2.484,1.863,2.406,3.417-0.233,4.659l-12.113-4.659
			c-4.192-2.329-7.765-5.357-10.715-9.085l-6.289-20.032c-2.33-2.02-2.33-8.23,0-18.636l-2.097-15.141l-0.699-6.29
			c-1.087-5.901-1.087-11.803,0-17.704c0-15.219,1.165-30.438,3.494-45.657c-2.174-4.814-2.174-11.569,0-20.266
			c-0.932-13.666,2.174-25.624,9.317-35.873v-0.233l0.233-0.233c0.311-9.628,1.32-15.84,3.028-18.635
			c-2.019-11.802-2.019-24.226,0-37.271 M352.588,246.452l-21.197,27.953v0.233l-0.233,0.233l10.017,24.459l5.357,13.51h6.756
			v-0.233l6.755-54.042L352.588,246.452c-2.484-15.063-0.232-30.748,6.756-47.054 M365.633,292.341l-12.113,20.266l-0.232,0.233
			l-3.262,19.334c-9.007,17.703-12.501,37.115-10.481,58.235l-5.824,3.494l-1.164-2.562l-7.222-17.238l-6.289,26.556
			 M325.334,374.104c-1.087-5.435,2.795-24.77,11.647-58.002c-2.33-7.765-0.932-13.355,4.192-16.771 M350.025,332.174l-5.124-0.233
			l-1.165-0.932l-4.658,4.193l-5.358,35.407c-1.397,10.094-1.785,17.005-1.164,20.732 M343.736,331.009
			c-3.261-2.951-5.513-7.92-6.755-14.908 M201.643,294.903c2.019,9.628,1.32,18.869-2.097,27.72v0.233h-0.233 M266.633,321.692
			l15.141-46.355 M273.621,390.643l8.153-6.057l-15.141-62.894 M281.774,384.586l2.563-8.386v-22.129l7.687-15.84 M226.334,351.741
			l12.346,16.539 M218.647,361.059c1.398,7.61,4.503,15.763,9.318,24.459c4.193,7.765,9.938,16.461,17.237,26.09 M184.405,509.442
			c1.553-15.84,3.882-29.351,6.988-40.532l1.397-5.357c2.64-9.473,5.28-17.237,7.92-23.294c13.977-32.146,19.956-58.546,17.937-79.2
			 M281.774,384.586l-11.414,25.391l24.226-15.141 M368.661,395.301l0.233,8.386c-3.262,20.498-4.814,37.348-4.659,50.548
			l0.232,4.659 M231.692,336.134l-11.647,9.783 M176.951,229.214l-9.318,6.988 M114.988,227.118
			c-8.386,14.753-12.812,34.708-13.278,59.866 M204.67,400.426l-13.277,46.355 M97.518,247.15
			c-2.174-10.249-1.786-21.12,1.165-32.611 M227.965,385.518c5.435,24.07,6.522,50.082,3.261,78.035l-5.591,31.913l-6.988,20.965
			c-2.33,9.628-3.572,19.878-3.727,30.748c5.901-4.503,10.638-10.56,14.209-18.169c-1.864,13.044-0.233,21.431,4.892,25.157
			 M218.647,516.431c-5.901,6.212-11.414,7.144-16.539,2.795l1.863,28.419l-3.727,7.222c-5.28,0-10.172-3.572-14.675-10.716
			 M195.353,593.534c6.367,6.522,10.172,17.16,11.414,31.913l0.932,27.254c0.466,28.729-2.096,47.52-7.687,56.372 M236.351,678.092
			l-14.908,42.162c-9.007-24.691-11.259-49.384-6.755-74.075c-2.174-20.188-0.699-37.892,4.426-53.11l5.591-6.756l7.92-6.755
			 M206.767,625.447c-6.833,10.56-9.784,23.604-8.852,39.134 M149.463,469.144l1.864-5.591c6.056-17.858,7.998-33.388,5.823-46.588
			 M185.569,469.144l-4.426,26.09 M116.153,516.431c2.33,9.628,3.649,19.878,3.96,30.748c-6.056-4.503-10.793-10.56-14.209-18.169
			c1.708,13.044,0.078,21.431-4.892,25.157 M149.696,543.685c-4.659,7.454-9.628,11.182-14.908,11.182l-3.727-7.222
			c0.155-9.938,0.699-19.411,1.631-28.419 M102.409,579.558l7.92,6.755l5.357,6.756c5.125,15.219,6.678,32.922,4.659,53.11
			c4.349,24.691,2.097,49.384-6.755,74.075l-14.675-42.162 M135.254,709.306c-5.901-8.696-8.619-27.564-8.153-56.604l0.932-27.254
			c1.243-14.753,5.125-25.391,11.647-31.913 M128.033,625.447c6.367,9.783,9.396,21.818,9.085,36.105l-0.233,3.262 M202.108,519.226
			c-2.019-18.169-5.591-34.94-10.715-50.315 M224.704,586.313c11.026,24.848,9.939,69.494-3.261,133.941 M110.33,586.313
			c-11.026,24.848-9.939,69.494,3.261,133.941 M490.257,550.673c-0.155,5.901-2.796,10.094-7.92,12.579 M410.823,734.464
			l-2.795,23.061c-4.193-22.052-4.504-44.104-0.932-66.155v-19.566c-5.436-6.522-10.017-14.986-13.744-25.391 M411.755,587.012
			l2.563,17.471 M497.478,646.412c1.708,10.249,5.513,18.945,11.414,26.089c-10.249,27.643-16.15,56.139-17.703,85.489h6.755
			l4.426-17.471 M408.494,563.252c-6.057,2.795-10.871,11.725-14.442,26.788 M496.779,590.04c-0.312-10.094,2.096-20.11,7.221-30.05
			 M417.346,113.442l-45.19,37.736 M393.12,432.805c-7.144,2.329-12.269,4.426-15.374,6.289l7.92,18.868 M375.416,385.75
			c11.958,4.503,12.734,22.285,2.33,53.343" ></path>
                    <path fill="none" stroke="#999999" stroke-width="6" stroke-linecap="round" stroke-linejoin="round"
                        d="M465.099,81.529
			l8.619,31.913 M376.581,539.026l3.728,24.226v7.92v8.153c-10.871,22.518-13.511,48.84-7.92,78.967l16.072,72.678v9.55
			 M449.025,425.816c-0.155,8.541,1.165,21.12,3.961,37.736l9.317,46.123c-0.932,25.778,1.708,49.849,7.92,72.211l6.057,22.596
			c-7.609,26.245-7.688,46.277-0.233,60.099c0.155,23.139,1.476,46.433,3.96,69.883 M441.571,425.816
			c2.33,1.708,4.814,1.708,7.454,0 M441.571,425.816c0.312,8.541-0.932,21.12-3.727,37.736l-9.317,46.123
			c0.776,25.778-1.864,49.849-7.92,72.211l-6.29,22.596c7.609,26.245,7.765,46.277,0.466,60.099
			c-0.311,23.139-1.63,46.433-3.96,69.883c4.659,2.795,5.824,9.239,3.494,19.334c2.175,8.386,2.175,16.771,0,25.157h-44.259
			c-2.484-5.591-2.484-8.696,0-9.317l6.988-3.728c1.708-4.037,4.426-7.454,8.153-10.249c-1.553-4.659-0.466-9.706,3.261-15.142
			 M510.522,571.172v-7.92l3.727-24.459l12.113-79.898 M248.463,459.36l-14.442,94.807l-1.397,9.317v16.073l7.92,79.2l-4.193,19.334
			l-11.88,53.11v9.784c3.727,5.435,4.814,10.481,3.261,15.141c3.727,2.64,6.522,6.057,8.386,10.25l6.755,3.493
			c2.329,0.777,2.329,3.961,0,9.551h-44.259c-2.33-8.386-2.33-16.771,0-25.157c-2.33-10.25-1.165-16.694,3.494-19.334l-2.097-25.624
			 M200.012,709.073c-1.087-14.753-1.708-29.506-1.863-44.259 M197.915,664.581c-7.143-13.821-6.91-33.698,0.699-59.633
			l-3.261-11.414l-3.028-11.414c-3.261-12.113-5.513-24.77-6.755-37.97 M185.569,543.685c-1.087-10.87-1.475-22.052-1.165-33.543
			v-0.233 M184.405,509.442l-3.028-13.743 M181.144,495.233l-6.057-31.681c-2.795-16.461-4.038-28.885-3.727-37.271h-0.233
			l-7.221-0.232c0.155,8.541-1.165,21.042-3.96,37.503l-6.057,32.146l-3.261,14.442c0.311,11.491,0,22.673-0.932,33.543l-0.699,6.29
			c-1.397,11.025-3.494,21.74-6.29,32.146l-3.028,11.414l-3.028,11.414c6.833,24.226,7.454,43.094,1.863,56.604l-1.63,3.262
			l-1.631,44.491l-2.329,25.624c4.659,2.64,5.901,9.084,3.727,19.334c2.174,8.386,2.174,16.771,0,25.157H92.393
			c-2.485-5.59-2.485-8.773,0-9.551l6.755-3.493c1.708-4.193,4.426-7.61,8.153-10.25c-1.553-4.659-0.466-9.706,3.261-15.141v-9.784
			l-11.647-53.11l-4.426-19.334c-5.59-30.282-2.951-56.683,7.92-79.2v-16.073l-1.397-9.317L86.569,459.36 M364.468,458.895
			l12.113,80.132 M502.369,740.52v-9.55l16.073-72.678l-7.92-78.967v-8.153 M502.369,740.52c3.572,5.436,4.659,10.482,3.262,15.142
			c3.727,2.795,6.444,6.212,8.152,10.249l6.756,3.728c2.484,0.621,2.484,3.727,0,9.317H476.28c-2.175-8.386-2.175-16.771,0-25.157
			c-2.33-10.095-1.087-16.539,3.727-19.334" ></path>
                </g>
            </g>
        </svg>